<?xml version="1.0" encoding="utf-8"?>
<!-- Generator: Adobe Illustrator 23.0.2, SVG Export Plug-In . SVG Version: 6.00 Build 0)  -->
<svg version="1.1" id="Layer_1" xmlns="http://www.w3.org/2000/svg" xmlns:xlink="http://www.w3.org/1999/xlink" x="0px" y="0px"
	 viewBox="0 0 140 29" style="enable-background:new 0 0 140 29;" xml:space="preserve">
<style type="text/css">
	.st0{fill-rule:evenodd;clip-rule:evenodd;fill:#31322F;}
	.st1{fill-rule:evenodd;clip-rule:evenodd;fill:#306E9A;}
	.st2{fill-rule:evenodd;clip-rule:evenodd;fill:#1F4066;}
</style>
<g>
	<g id="Full.H.logout_wishlist" transform="translate(-71.000000, -22.000000)">
		<g id="Top-Nav---logged-out">
			<g id="afterpay_logo" transform="translate(71.000000, 22.000000)">
				<path id="Fill-1" class="st0" d="M68.6,14.6c0-1.9-1.6-3.5-3.4-3.5c-1.9,0-3.4,1.6-3.4,3.5c0,1.9,1.6,3.5,3.4,3.5
					C67,18.1,68.6,16.5,68.6,14.6z M70.1,9.7c1.3,1.3,2,3.1,2,4.9c0,1.8-0.7,3.6-2,4.9c-1.3,1.3-3.1,2-4.9,2c-1.2,0-2.3-0.4-3.3-1.3
					l-0.1-0.1v7.8L58.2,29V8h3.5v1l0.1-0.1c1-1,2.2-1.2,3.3-1.2C67,7.7,68.8,8.4,70.1,9.7z"/>
				<path id="Fill-4" class="st0" d="M76.9,14.6c0,1.9,1.6,3.5,3.4,3.5c1.9,0,3.4-1.6,3.4-3.5c0-1.9-1.6-3.5-3.4-3.5
					C78.5,11.1,76.9,12.7,76.9,14.6z M75.4,19.5c-1.3-1.3-2-3.1-2-4.9c0-1.8,0.7-3.6,2-4.9c1.3-1.3,3.1-2,4.9-2
					c1.2,0,2.3,0.4,3.3,1.3l0.1,0.1V8h3.5v13.3h-3.5v-1l-0.1,0.1c-1,1-2.2,1.2-3.3,1.2C78.5,21.5,76.8,20.8,75.4,19.5z"/>
				<polyline id="Fill-7" class="st0" points="90.8,29 94,21.3 88.6,8 92.5,8 95.9,16.2 99.2,8 103.1,8 94.6,29 90.8,29 				"/>
				<path id="Fill-10" class="st0" d="M6.8,9.9c-2.6,0-4.6,2.1-4.6,4.7s2.1,4.7,4.6,4.7c2.6,0,4.6-2.1,4.6-4.7S9.4,9.9,6.8,9.9z
					 M6.8,21.4c-1.8,0-3.5-0.7-4.8-2c-1.3-1.3-2-3-2-4.8s0.7-3.5,2-4.8c1.3-1.3,3-2,4.8-2c1.8,0,3.4,1,4.4,1.8l0.3,0.2V8.1h2.2v13
					h-2.2v-1.7l-0.3,0.2C10.2,20.4,8.6,21.4,6.8,21.4z"/>
				<path id="Fill-11" class="st0" d="M17.5,21.1V10.2h-2v-2h2V4.3c0-2.3,1.9-4.2,4.2-4.2h2.7l-0.5,2h-2.1c-1.1,0-2.1,1-2.1,2.2v3.8
					h4.1v2h-4.1v10.9H17.5"/>
				<path id="Fill-12" class="st0" d="M31.9,21.1c-2.3,0-4.2-1.9-4.2-4.2v-6.7h-2v-2h2v-8h2.2v8h4.1v2h-4.1v6.6c0,1.2,1,2.3,2.1,2.3
					h2.1l0.5,2H31.9"/>
				<path id="Fill-13" class="st0" d="M41.2,10c-1.7,0-3.2,1.2-3.9,3l0,0l-0.1,0.2h8L45,13C44.4,11.2,42.9,10,41.2,10z M41.2,21.3
					c-1.7,0-3.2-0.7-4.4-2c-1-1.1-1.6-2.5-1.8-4.1c0-0.2,0-0.4,0-0.6c0-0.5,0.1-1,0.2-1.5c0.2-1.2,0.8-2.3,1.6-3.1
					C37.9,8.8,39.5,8,41.2,8c1.7,0,3.2,0.7,4.4,2c0.8,0.9,1.4,2,1.6,3.1c0.2,1,0.2,1.6,0.2,1.9H37.1v0.2c0.3,2.3,2,4,4,4.1
					c1.2-0.1,2.4-0.6,3.3-1.4l1.8,1.1c-0.5,0.5-1,0.9-1.6,1.3C43.7,20.9,42.5,21.3,41.2,21.3z"/>
				<path id="Fill-14" class="st0" d="M49.5,21.1v-13h2.2v1.6l0.3-0.3c0.8-0.8,3-1.5,4.5-1.6L55.9,10c-2.4,0.1-4.3,1.9-4.3,4.2v6.9
					H49.5"/>
				<path id="Fill-16" class="st1" d="M121.7,11.6c1.3-0.7,2.5-1.4,3.8-2.2c-0.4-0.7-0.3-0.6-0.7-1.2c-0.4-0.7-0.3-1,0.6-1
					c2.4,0,4.8,0,7.3,0c0.7,0,0.9,0.3,0.5,0.9c-1.2,2.1-2.4,4.2-3.6,6.3c-0.4,0.7-0.7,0.7-1.1,0c-0.4-0.7-0.3-0.5-0.8-1.3
					c-1.3,0.7-2.5,1.5-3.8,2.2c0.1,0.2,0.2,0.3,0.2,0.5c0.9,1.6,1.3,2.4,2.3,4c1.1,1.9,3.5,2,4.9,0.3c0.2-0.2,0.3-0.4,0.4-0.6
					c2.3-4,4.6-7.9,6.8-11.9c0.2-0.4,0.4-0.8,0.5-1.3c0.4-1.8-0.9-3.5-2.8-3.5c-4.9,0-9.8,0-14.7,0c-2.2,0-3.6,2.3-2.6,4.2
					c0.3,0.6,0.7,1.2,1.1,1.9C120.8,10,121,10.4,121.7,11.6"/>
				<path id="Fill-18" class="st2" d="M110.8,23.9c0-1.5,0-4.3,0-4.3s-0.6,0-1.4,0c-0.8,0-1-0.3-0.6-1c1.2-2.1,2.4-4.2,3.6-6.2
					c0.4-0.6,0.7-0.7,1.1,0c1.2,2.1,2.4,4.2,3.6,6.3c0.4,0.7,0.2,1-0.6,1c-0.8,0-1.5,0-1.5,0l0,4.4c0,0,3.2,0,5.1,0
					c2.2,0,3.5-2,2.7-4.1c-0.1-0.2-0.2-0.4-0.3-0.7c-2.3-3.9-4.5-7.9-6.8-11.8c-0.2-0.4-0.5-0.8-0.8-1.1c-1.3-1.2-3.4-0.9-4.4,0.7
					c-2.5,4.2-4.9,8.4-7.3,12.6c-1.1,1.9,0.2,4.2,2.3,4.3C106.2,23.9,109.3,23.9,110.8,23.9"/>
			</g>
		</g>
	</g>
</g>
</svg>
