<?xml version="1.0" encoding="utf-8"?>
<!-- Generator: Adobe Illustrator 22.1.0, SVG Export Plug-In . SVG Version: 6.00 Build 0)  -->
<svg version="1.1" id="Layer_1" xmlns="http://www.w3.org/2000/svg" xmlns:xlink="http://www.w3.org/1999/xlink" x="0px" y="0px"
	 viewBox="0 0 37.5 19.5" style="enable-background:new 0 0 37.5 19.5;" xml:space="preserve">
<style type="text/css">
	.st0{fill:#231F20;}
</style>
<path class="st0" d="M37.5,19.1C37.5,19.1,37.5,19.1,37.5,19.1c0,0.2-0.2,0.4-0.4,0.4c-0.2,0-15.8-0.6-18.4-14.9
	C16.1,18.9,0.5,19.5,0.4,19.5c-0.2,0-0.4-0.2-0.4-0.4c0-0.2,0.2-0.4,0.4-0.4c0.7,0,18-0.7,18-18.4c0-0.2,0.2-0.4,0.4-0.4
	s0.4,0.2,0.4,0.4c0,17.7,17.8,18.4,18,18.4C37.3,18.8,37.5,18.9,37.5,19.1z"/>
</svg>
