<?xml version="1.0" encoding="utf-8"?>
<!-- Generator: Adobe Illustrator 25.2.3, SVG Export Plug-In . SVG Version: 6.00 Build 0)  -->
<svg version="1.1" id="Layer_1" xmlns="http://www.w3.org/2000/svg" xmlns:xlink="http://www.w3.org/1999/xlink" x="0px" y="0px"
	 viewBox="0 0 200 200" style="enable-background:new 0 0 200 200;" xml:space="preserve">
<style type="text/css">
	.st0{fill:#EDCA3A;}
</style>
<g id="Group_805" transform="translate(1317.886 -557.881)">
	<path id="Path_281" d="M-1170.8,574.8l-6.2,7c32,35.4,51.7,73.3,26.4,121c-17.3,32.7-61.3,54.7-100.7,50.7
		c-3.5-12.3-2.7-11.9,7.6-18.4c14-8.8,27-19.1,40.4-28.8l-1.3-2c-8.1,3.9-16.2,7.6-24.4,11.6c-16.1,7.6-34.5,8.7-51.3,3.1
		c-2.5-1.1-5.2-1.7-7.9-1.5c-7.4,1.9-11.8-0.4-13.2-7.9c-0.6-3.1-2.1-7.2-0.8-9.1c1.2-1.7,5.8-1.2,8.8-1.6c1.2-0.1,2.5,0.5,3.6,0.1
		c36.2-10.5,70.6-24.4,89.4-59.9c6.3-13.4,10.7-27.5,13.3-42.1c1.3-5.6-2.6-12.1-3.2-18.4c-0.5-4.6-1.3-10.8,1.1-13.7
		c4.2-5,7.7,0.7,10.9,3.7C-1176.1,570.5-1173.7,572.3-1170.8,574.8z M-1166.4,602.4c0.9,2.5,1.8,5,2.8,7.4
		c14.4,33.2,11.3,68.7-15.4,96c-14.5,14.8-33.2,22-50.4,32.1c-2.1,1.7-4,3.7-5.5,6c2.4,1.1,4.9,3.4,7.2,3.2
		c32.4-1.6,61.3-20.7,75.5-49.9C-1134.4,662.7-1144.4,631.5-1166.4,602.4L-1166.4,602.4z M-1183.2,604.6c-5,24.9-18,47.4-36.9,64.3
		c-19.7,17.3-44,24.2-68.5,34.2c17.8,9,63.9-3.8,83.7-21.5C-1183,662.1-1175.2,626.8-1183.2,604.6L-1183.2,604.6z M-1284.7,712.5
		c29.9,14.7,62.3,1.7,87.9-19.7c22.8-19,31.4-60.2,20.3-86.8c0,9.2,0.3,17.4-0.1,25.5c-2.1,34.1-25.9,62.9-58.9,71.6
		C-1251.5,707.1-1268,709.4-1284.7,712.5L-1284.7,712.5z M-1170.5,604.9c0,17.1,0.9,33.4-0.2,49.6c-1.8,16.8-9.6,32.4-22,43.9
		c-11.2,11.4-23,22.2-34.8,33.4C-1154.9,700.4-1147.3,647.4-1170.5,604.9L-1170.5,604.9z"/>
	<g id="Group_804" transform="translate(-1315.8 563.735)">
		<path id="Path_282" class="st0" d="M149.4,38.7c22,29.1,32,60.3,14.1,94.8c-14.2,29.1-43.1,48.2-75.5,49.9
			c-2.3,0.2-4.7-2.1-7.2-3.2c1.5-2.3,3.4-4.3,5.5-6c17.2-10.1,35.9-17.3,50.4-32.1c26.8-27.3,29.8-62.8,15.4-96
			C151.2,43.7,150.4,41.2,149.4,38.7z"/>
		<path id="Path_283" class="st0" d="M132.6,40.8c8,22.2,0.1,57.5-21.8,77.1c-19.7,17.7-65.9,30.5-83.7,21.5
			c24.5-10,48.7-16.9,68.5-34.2C114.6,88.3,127.6,65.7,132.6,40.8z"/>
		<path id="Path_284" class="st0" d="M31.1,148.8c16.7-3.1,33.2-5.4,49.2-9.4c33-8.7,56.8-37.5,58.9-71.6c0.3-8.1,0.1-16.3,0.1-25.5
			c11.1,26.6,2.5,67.8-20.3,86.8C93.3,150.4,61,163.5,31.1,148.8z"/>
		<path id="Path_285" class="st0" d="M145.3,41.1c23.2,42.5,15.6,95.5-57.1,126.9c11.8-11.3,23.7-22,34.8-33.4
			c12.4-11.5,20.2-27.1,22-43.9C146.2,74.6,145.3,58.3,145.3,41.1z"/>
	</g>
</g>
</svg>
