<?xml version="1.0" encoding="utf-8"?>
<!-- Generator: Adobe Illustrator 24.2.3, SVG Export Plug-In . SVG Version: 6.00 Build 0)  -->
<svg version="1.1" id="Layer_1" xmlns="http://www.w3.org/2000/svg" xmlns:xlink="http://www.w3.org/1999/xlink" x="0px" y="0px"
	 width="15.3px" height="20px" viewBox="0 0 15.3 20" style="enable-background:new 0 0 15.3 20;" xml:space="preserve">
<path d="M3.4,5.6C3.4,5.6,3.4,5.6,3.4,5.6c0-0.6,0-1.2,0-1.7c0-0.8,0.2-1.5,0.7-2.2c0.6-0.9,1.5-1.5,2.6-1.7C7,0,7.2,0,7.4,0
	C7.7,0,8,0,8.2,0c0.6,0,1.1,0.2,1.6,0.5c1.1,0.6,1.7,1.5,2,2.7c0.1,0.3,0.1,0.6,0.1,0.8c0,0.5,0,1,0,1.6c0,0,0,0,0,0.1
	c0,0,0.1,0,0.1,0c0.9,0,1.9,0,2.8,0c0.2,0,0.4,0.1,0.4,0.3c0,0,0,0.1,0,0.1c0,4.3,0,8.5,0,12.8c0,0.6-0.4,1-0.9,1.1
	c-0.1,0-0.2,0-0.2,0c-4.3,0-8.7,0-13,0c-0.6,0-1-0.4-1.1-0.9c0-0.1,0-0.1,0-0.2c0-4.3,0-8.5,0-12.8c0-0.2,0.2-0.4,0.4-0.4
	c0.3,0,0.6,0,0.8,0C2,5.6,2.7,5.6,3.4,5.6C3.4,5.6,3.4,5.6,3.4,5.6z M3.4,6.4c-0.9,0-1.8,0-2.7,0c0,0,0,0,0,0.1c0,4.1,0,8.3,0,12.4
	c0,0,0,0.1,0,0.1c0,0.2,0.2,0.3,0.4,0.3c4.3,0,8.6,0,13,0c0.2,0,0.4-0.2,0.4-0.4c0-4.1,0-8.2,0-12.4c0,0,0,0,0-0.1
	c-0.9,0-1.7,0-2.6,0c0,0,0,0,0,0.1c0,0.3,0,0.5,0,0.8c0,0.4,0,0.7,0,1.1c0,0.2-0.2,0.4-0.4,0.4c-0.2,0-0.4-0.2-0.4-0.4
	c0-0.6,0-1.2,0-1.9c0,0,0,0,0-0.1c-2.3,0-4.7,0-7,0c0,0,0,0,0,0.1c0,0.6,0,1.2,0,1.9c0,0.2-0.2,0.4-0.4,0.4c-0.2,0-0.4-0.2-0.4-0.4
	C3.4,7.7,3.4,7.1,3.4,6.4C3.4,6.5,3.4,6.4,3.4,6.4z M11.2,5.6C11.2,5.6,11.2,5.6,11.2,5.6c0-0.6,0-1.1,0-1.7c0-0.2,0-0.4-0.1-0.6
	c-0.2-0.9-0.7-1.6-1.5-2.1C9.2,1,8.7,0.8,8.2,0.8c-0.3,0-0.5,0-0.8,0c-0.2,0-0.5,0-0.7,0.1C5.3,1.2,4.2,2.5,4.2,4c0,0.5,0,1.1,0,1.6
	c0,0,0,0,0,0.1C6.5,5.6,8.9,5.6,11.2,5.6z"/>
</svg>
