<?xml version="1.0" encoding="utf-8"?>
<!-- Generator: Adobe Illustrator 25.2.3, SVG Export Plug-In . SVG Version: 6.00 Build 0)  -->
<svg version="1.1" id="Layer_1" xmlns="http://www.w3.org/2000/svg" xmlns:xlink="http://www.w3.org/1999/xlink" x="0px" y="0px"
	 viewBox="0 0 342 232.3" style="enable-background:new 0 0 342 232.3;" xml:space="preserve">
<style type="text/css">
	.st0{fill:#EDCA3A;}
	.st1{fill:#00A14A;}
	.st2{fill:#EE1D25;}
	.st3{fill:#FFFFFF;}
	.st4{fill:#138C46;}
	.st5{fill:#257244;}
</style>
<g id="Group_805_1_" transform="translate(1317.886 -557.881)">
	<path id="Path_281_1_" d="M-1134.8,575.2l-8.7,7.3c32.5,48.7,49.6,98.2,10.4,151.6c-26.8,36.7-84.1,55.5-131.2,43.6
		c-2-15.5-1.2-14.9,12.5-21.1c18.5-8.2,36.2-18.3,54.1-27.8l-1.3-2.7c-10.5,3.3-21.1,6.4-31.7,9.7c-21,6.4-43.4,4.4-62.8-5.4
		c-2.8-1.8-6-3-9.3-3.2c-9.3,1-14.2-2.6-14.6-11.9c-0.2-3.9-1.2-9,0.6-11.1c1.8-1.9,7.2-0.5,10.9-0.4c1.5,0.1,2.9,1.1,4.3,0.8
		c45.8-6.3,90.1-17,119.2-56.7c10-15,17.8-31.5,23.7-48.7c2.6-6.5-1-15.2-0.6-23c0.2-5.6,0.3-13.3,3.7-16.4
		c5.9-5.3,9.2,2.2,12.6,6.5C-1140.5,569.1-1137.9,571.7-1134.8,575.2z M-1134.4,609.6c0.7,3.2,1.3,6.3,2.1,9.4
		c11.5,42.9,1.5,85.4-35.8,113.8c-20.2,15.3-44.2,20.8-66.9,30.1c-2.8,1.6-5.5,3.7-7.8,6.3c2.7,1.8,5.3,5,8.1,5.2
		c39.6,3.8,78.1-14.2,100.6-47.1C-1106.3,688.4-1112.9,648.9-1134.4,609.6L-1134.4,609.6z M-1155.2,609.3
		c-10.5,29.4-30.3,54.3-56.3,71.5c-27.1,17.5-57.7,21.6-89.2,29.3c20.1,14.1,78.3,6.8,105.4-11.2
		C-1165.2,679.1-1149.3,637.7-1155.2,609.3L-1155.2,609.3z M-1297.5,722.2c33.7,23.2,75.4,13.1,110.2-8.2
		c31.1-19,48.8-67.5,40.1-101.8c-1.6,11.2-2.7,21.2-4.6,31c-8.6,41-42.7,71.7-84.2,76.4C-1256.3,721.6-1276.9,721.3-1297.5,722.2
		L-1297.5,722.2z M-1139.7,611.9c-3,20.8-4.9,40.7-9.1,60.3c-5.1,20.1-17.4,37.6-34.5,49.4c-15.6,11.8-31.9,22.9-48.1,34.3
		C-1137.8,730.5-1119.2,667.5-1139.7,611.9L-1139.7,611.9z"/>
	<g id="Group_804_1_" transform="translate(-1315.8 563.735)">
		<path id="Path_282_1_" class="st0" d="M181.4,45.9c21.5,39.2,28.1,78.9,0.2,117.6c-22.5,32.8-60.9,50.8-100.6,47.1
			c-2.8-0.2-5.3-3.4-8.1-5.2c2.2-2.5,4.8-4.6,7.8-6.3c22.8-9.2,46.7-14.5,66.9-30.1c37.5-28.3,47.3-70.9,35.8-113.8
			C182.7,52.3,182.2,49.1,181.4,45.9z"/>
		<path id="Path_283_1_" class="st0" d="M160.6,45.4c5.7,28.4-10,69.8-40.3,89.7c-27.1,17.9-85.4,25.4-105.4,11.2
			c31.6-7.7,62.2-11.8,89.2-29.3C130.3,99.9,150.1,74.8,160.6,45.4z"/>
		<path id="Path_284_1_" class="st0" d="M18.3,158.5c20.9-0.7,41.2-0.6,61.5-2.6c41.7-4.7,75.7-35.4,84.2-76.4
			c1.8-9.8,3.1-19.9,4.6-31c8.7,34.3-9,82.7-40.1,101.8C93.4,171.4,51.9,181.6,18.3,158.5z"/>
		<path id="Path_285_1_" class="st0" d="M176.1,48.1c20.6,55.7,1.9,118.8-91.8,143.9c16.3-11.6,32.8-22.5,48.1-34.3
			c17.1-11.7,29.4-29.3,34.5-49.4C171.2,88.9,173,68.9,176.1,48.1z"/>
	</g>
</g>
<path class="st1" d="M207.8,169c-0.1-0.7,0.2-1.4,0.9-1.6c0.6-0.2,0.9-0.5,1.2-1c0.4-0.7,1.2-0.7,1.9-0.2c0.8,0.6,1,1,0.5,1.7
	c-0.2-0.2-0.4-0.5-0.6-0.6c-0.3-0.2-0.7-0.2-1-0.3c0,0.4,0,0.7,0.1,1.1c0,0.2,0.3,0.3,0.4,0.5c0.1,0.2,0.1,0.4,0.1,0.7
	c-0.2,0-0.5,0-0.6-0.1c-0.2-0.2-0.4-0.5-0.6-0.6c-0.3-0.1-0.7-0.3-0.9-0.2C208.6,168.4,208.2,168.7,207.8,169
	c2.2,1.4,4.6,1.8,7.1,0.8c0.5-0.2,1.1-0.9,1.2-1.4c0.1-0.3-0.7-0.9-1.1-1.2c-0.4-0.3-1-0.3-1.7-0.5c0.3-0.5,0.6-1,0.9-1.5
	c0.1-0.1,0.3-0.2,0.4-0.2c1.6-0.1,3.2,1,3.6,2.4c0.4,1.4-0.3,3.3-1.6,4.1c-1.9,1.1-4,1.2-6.1,0.7c-1.4-0.3-2.8-1-4-1.7
	c-1.5-0.9-3-2-4-3.6c-0.3-0.5-0.4-1-0.6-1.6c0.1,0,0.2-0.1,0.3-0.1c0.2,0.2,0.4,0.5,0.7,0.6C204.5,166.9,206.2,167.9,207.8,169z
	 M209.1,218.3c0-0.1,0-0.2-0.1-0.3c0.3-0.2,0.5-0.3,0.8-0.5c2-1,4.1-1.9,6.1-3c4.4-2.2,8.5-4.8,11.9-8.4c4.7-4.9,6.8-10.9,7.1-17.6
	c0.2-5.1-0.3-10.2-1.3-15.2c0-0.2,0-0.5,0-1c0.3,0.3,0.4,0.4,0.5,0.5c0.4,0.8,0.7,1.6,1,2.4c2.5,6.9,3.8,13.9,2.1,21.2
	c-1,4.2-2.9,7.8-5.8,10.9c-2.8,3-6.1,5.2-9.8,7c-3.8,1.8-7.7,2.9-11.8,3.8C209.6,218.4,209.3,218.3,209.1,218.3z M202.6,163.9
	c2.6-2.4,6.8-1.9,7.8,0.8c-1,0.8-2,1.7-3,2.5c-0.2,0.1-0.5,0.1-0.7,0.1c0-0.3,0-0.6,0.2-0.8c0.3-0.3,0.7-0.5,1.1-0.7
	C206.3,164.5,205,162.7,202.6,163.9z"/>
<g>
	<path class="st2" d="M210.9,160.7c-3.1-1-5.7-2.7-8.3-4.7c-5.1-4-10.8-5.2-17-3c-4.7,1.7-8.5,4.7-11.7,8.4c-3.2,3.6-5.5,7.8-7,12.4
		c-1.5,4.4-2,9-1.7,13.7c0.4,4.5,1.5,8.9,3.4,13c2.3,4.9,5.5,9.1,9.4,12.7c3.4,3.1,7.3,5.3,11.6,6.8c4.2,1.4,8.4,2.8,12.8,3.5
		c5,0.8,9.8,0.5,14.6-0.8c3.1-0.9,6.1-2.1,9-3.7c6.1-3.2,10.7-7.9,14.2-13.7c1.7-2.9,3-6.1,3.8-9.4c1.6-6.8,1.4-13.5-0.9-20.1
		c-1.3-3.8-3.3-7.2-6.5-9.8c-3.8-3.1-8.1-4.2-13-3.9c-2,0.1-4.1,0.1-6.1,0.1c-0.3,0-0.6-0.1-1.1-0.2 M208.8,168
		c-0.1-0.8,0.2-1.4,0.9-1.7c0.6-0.2,0.9-0.6,1.2-1.1c0.4-0.7,1.3-0.7,2-0.2c0.8,0.6,1,1.1,0.5,1.7c-0.2-0.2-0.4-0.5-0.6-0.6
		c-0.3-0.2-0.7-0.2-1-0.3c0,0.4,0,0.7,0.1,1.1c0,0.2,0.3,0.3,0.4,0.5c0.1,0.2,0.1,0.5,0.1,0.7c-0.2,0-0.5,0-0.7-0.1
		c-0.2-0.2-0.4-0.5-0.6-0.6c-0.3-0.1-0.7-0.3-1-0.2C209.7,167.3,209.2,167.7,208.8,168c2.3,1.4,4.7,1.8,7.3,0.8
		c0.5-0.2,1.1-0.9,1.2-1.5c0.1-0.3-0.7-0.9-1.2-1.3c-0.5-0.3-1.1-0.3-1.7-0.5c0.3-0.5,0.6-1,1-1.5c0.1-0.1,0.3-0.2,0.4-0.2
		c1.6-0.1,3.3,1,3.7,2.5c0.4,1.5-0.3,3.4-1.7,4.2c-2,1.1-4.1,1.2-6.2,0.7c-1.4-0.3-2.8-1-4.1-1.7c-1.6-0.9-3-2.1-4-3.6
		c-0.3-0.5-0.4-1.1-0.6-1.6c0.1,0,0.2-0.1,0.3-0.1c0.2,0.2,0.5,0.5,0.7,0.7C205.5,165.8,207.1,166.9,208.8,168z M203.5,162.8
		c2.6-2.4,6.9-1.9,8,0.9c-1,0.8-2,1.7-3.1,2.5c-0.2,0.1-0.5,0.1-0.7,0.1c0-0.3,0-0.6,0.2-0.8c0.3-0.3,0.7-0.5,1.1-0.8
		C207.3,163.4,205.9,161.6,203.5,162.8z"/>
	<g>
		<path d="M210.8,160.9c-2.4-0.5-4.8-1.6-6.9-2.9c-1.1-0.6-2.1-1.4-3.1-1.9c-1-0.6-2-1.1-3.1-1.5c-2.1-0.8-4.4-1.1-6.5-1
			c-2.2,0.2-4.3,0.8-6.4,1.8c-2,1-3.9,2.2-5.6,3.7c-1.7,1.5-3.3,3.2-4.7,5c-2.8,3.6-4.9,7.8-6.2,12.2c-2.7,8.7-1.9,19,3,27.3
			c2.4,4.1,5.7,7.8,9.5,10.7c1.9,1.4,4,2.6,6.2,3.4c1.1,0.5,2.2,0.8,3.4,1.2c1.2,0.3,2.3,0.7,3.5,1c4.7,1.2,9.4,2.1,14,2
			c4.6-0.1,9.1-1.3,13.3-3.2c4.3-1.9,8.2-4.3,11.3-7.6c1.6-1.6,3-3.4,4.3-5.3c1.3-1.9,2.4-3.9,3.3-5.9c1.7-4.1,2.6-8.8,2.7-13.3
			c0-2.3-0.2-4.6-0.6-6.8c-0.5-2.2-1.1-4.5-2-6.5c-1.8-4.1-5.1-7.6-9.3-9.2c-2.1-0.8-4.4-1.2-6.8-1.2c-1.2,0-2.5-0.1-3.7-0.2
			l-1.8-0.2c-0.3,0-0.6,0-1-0.1c-0.3-0.1-0.6-0.2-0.9-0.2l0.1-0.5c0.3,0,0.6,0.1,0.9,0.1c0.2,0,0.6,0,0.9-0.1l1.8-0.1
			c1.2-0.1,2.4-0.2,3.6-0.4c2.5-0.3,5.1-0.3,7.7,0.4c5.2,1.3,9.5,5.2,12,9.8c1.3,2.3,2.2,4.8,2.9,7.3c0.7,2.5,1,5.1,1.1,7.7
			c0.1,2.6-0.1,5.2-0.5,7.8c-0.4,2.5-1.1,5.1-2.1,7.6c-1,2.5-2.3,4.8-3.8,6.9c-1.5,2.1-3.2,4.2-5.1,6c-1.9,1.8-4,3.4-6.2,4.8
			c-2.3,1.4-4.5,2.5-6.9,3.4c-4.8,1.9-10,3-15.2,2.8c-2.6-0.1-5.2-0.5-7.6-1.1c-2.5-0.6-4.8-1.4-7.2-2.3c-1.2-0.4-2.3-0.9-3.5-1.3
			c-1.2-0.5-2.3-1-3.5-1.5c-2.3-1.1-4.4-2.5-6.4-4c-3.9-3.2-7.2-7-9.9-11.2c-2.7-4.2-4.7-8.9-5.7-13.9c-1.1-4.9-1.1-10.2,0.1-15.3
			c1.2-5,3.5-9.8,6.8-13.9c1.7-2,3.4-3.8,5.5-5.5c2-1.6,4.3-3,6.8-4c2.4-1,5.1-1.6,7.8-1.6c2.7,0,5.4,0.7,7.7,1.9
			c1.2,0.6,2.3,1.3,3.3,2.1c1,0.8,1.9,1.6,2.8,2.4c1.9,1.5,3.9,2.9,6.1,3.8L210.8,160.9z"/>
		<path d="M208.7,167.8c-0.1,0-0.2,0-0.2,0.1c0,0,0-0.1,0-0.1c0-0.1,0-0.2-0.1-0.3c0-0.2,0-0.4,0-0.7c0.1-0.5,0.5-1,0.9-1.2
			c0.3-0.2,0.3-0.3,0.4-0.5l0.1-0.3c0,0,0.2-0.4,0.4-0.7c0.4-0.6,1.3-0.9,2-0.9c0.7,0,1.3,0.3,1.8,0.6c0.4,0.2,0.9,0.5,1.3,1.4
			c0.2,0.5,0.3,1.2,0.2,1.6c-0.1,0.5-0.3,0.8-0.4,1.1l-1.2,2.1l-1.8-1.8c-0.2-0.2-0.3-0.4-0.4-0.4c0,0,0,0,0,0.1
			c0,0,0.1,0.1,0.1,0.1l0.1,0.1c0.2,0.1-0.1,0-0.6,0l2.6-2.2l0.1,0.6c0,0.1,0,0.1,0,0.1c0,0,0,0,0,0l0,0c0-0.1-0.1-0.2-0.1-0.3
			c-0.1-0.2-0.1-0.3-0.2-0.4c-0.2-0.3-0.2-0.2,0-0.1c0.1,0.1,0.2,0.2,0.4,0.5c0.1,0.1,0.2,0.4,0.2,0.5c0,0.1,0.1,0.2,0.1,0.3
			c0.2,0.7,0.1,1,0.1,0.9l-2.6,2.4c0.1,0-0.1,0.1-0.7-0.1c-0.2,0-0.4-0.1-0.7-0.3c-0.1-0.1-0.2-0.1-0.3-0.2
			c-0.1-0.1-0.1-0.1-0.2-0.2c-0.2-0.2-0.4-0.4-0.4-0.5c-0.1-0.2-0.2-0.1,0.4,0.2c0.1,0,0,0,0.1,0c0,0,0.1,0,0.2,0c0.1,0,0.1,0,0.2,0
			l0.2,0l0.1,0l0,0c0,0-0.1,0-0.2,0c-0.2,0.1-0.5,0.2-0.9,0.4l0.1-3.6c0.7,0.6,1.4,1.1,2.2,1.5c0.8,0.4,1.7,0.6,2.7,0.5
			c0.2,0,0.5-0.1,0.7-0.1l0.3-0.1c0.1,0,0.1-0.1,0.2-0.1c0.1-0.1,0.3-0.3,0.4-0.4c0.1-0.1,0.1-0.2,0.1-0.2l0,0c0,0,0,0,0,0
			c0,0,0,0.1,0,0.1c0,0.1,0,0.1,0,0.1c-0.1-0.1-0.6-0.6-0.9-0.7c-0.3-0.1-0.8-0.2-1.5-0.3l-1.1-0.2l0.6-1.1c0.2-0.3,0.3-0.6,0.4-0.9
			l0.2-0.4l0.1-0.2l0.1-0.1c0.1-0.1,0.2-0.2,0.3-0.3c0.2-0.2,0.4-0.2,0.5-0.3c0.1,0,0.2-0.1,0.3-0.1l0.2,0c0.2,0,0.4-0.1,0.6-0.1
			c0.4,0,0.9,0,1.3,0.1c0.8,0.2,1.6,0.6,2.3,1.2c0.7,0.6,1.3,1.5,1.5,2.5c0.2,1,0.1,2-0.1,2.9c-0.3,0.9-0.8,1.8-1.5,2.5
			c-0.4,0.4-0.9,0.7-1.2,0.9c-0.4,0.2-0.7,0.4-1.1,0.5c-0.8,0.3-1.6,0.5-2.4,0.7c-1.6,0.3-3.2,0.1-4.7-0.3c-1.5-0.4-2.8-1.1-4-1.8
			c-1.2-0.7-2.4-1.7-3.3-2.8c-0.5-0.6-0.9-1.2-1.3-1.9c-0.1-0.1-0.3-0.5-0.3-0.7c-0.1-0.2-0.2-0.5-0.2-0.7c-0.1-0.4-0.1-0.7-0.1-0.9
			l-0.2-2.1l1.3-0.2l0.3,0l1.3-0.2l0.5,0.6c0.3,0.3,0.4,0.5,0.4,0.6c0,0,0.1,0.1,0.2,0.2c0.1,0.1,0.2,0.2,0.2,0.2l0.9,1.1
			c0.3,0.4,0.7,0.9,1.1,1.3C207.6,166.8,208.1,167.3,208.7,167.8z M208.9,168.2c-0.4-0.1-0.9-0.3-1.4-0.4l-1.8-0.5
			c-0.6-0.2-1.3-0.5-2-0.7l-0.5-0.2c-0.2-0.1-0.3-0.1-0.5-0.3c-0.4-0.3-0.7-0.5-0.8-0.6l1.8,0.4l-0.3,0.1l1.1-2.3l0.4,0.9
			c0.1,0.1,0.1,0.2,0.1,0.2c0.1,0.1,0,0,0.1,0.1c0.3,0.4,0.7,0.7,1.1,1c0.8,0.6,1.7,1.1,2.7,1.6c1,0.5,2,0.9,2.9,1.1
			c0.9,0.3,1.8,0.4,2.7,0.4c0.4,0,0.9-0.1,1.3-0.2c0.2-0.1,0.4-0.1,0.6-0.2c0.3-0.1,0.2-0.1,0.3-0.1c0.3-0.2,0.8-0.9,0.8-1.4
			c0-0.2,0.1-0.5-0.1-0.8c-0.2-0.3-0.4-0.6-0.8-0.9c-0.2-0.1-0.4-0.2-0.6-0.3c-0.1,0-0.2-0.1-0.3-0.1c0,0-0.1,0,0,0c0,0,0.1,0,0.1,0
			c0,0,0.1,0,0.1-0.1c0,0,0.1-0.1,0.1-0.1l-0.1,0.1l-0.1,0.2l-0.3,0.3c-0.2,0.2-0.4,0.5-0.6,0.7l-0.5-1.3c0.4,0.2,1,0.3,1.7,0.6
			c0.6,0.4,1,0.6,1.5,1.4c0.1,0.1,0.1,0.3,0.2,0.5c0,0.1,0,0.1,0,0.2l0,0.1c0,0.1,0,0.1,0,0.2c-0.1,0.2-0.1,0.4-0.2,0.5
			c-0.2,0.3-0.4,0.6-0.6,0.9c-0.1,0.1-0.3,0.3-0.4,0.4c-0.1,0.1-0.2,0.1-0.3,0.2l-0.2,0.1c-0.3,0.1-0.6,0.3-0.8,0.4
			c-1.2,0.5-2.5,0.7-3.8,0.7c-1.3-0.1-2.7-0.4-3.8-1l-2.7-1.3l2.7-2.3c0.2-0.1,0.5-0.4,0.9-0.6c0.2-0.1,0.5-0.3,0.8-0.4l0.1,0l0.2,0
			c0.1,0,0.2,0,0.3-0.1c0.2,0,0.3,0,0.5,0c0.3,0,0.5,0,0.7,0.1c0.4,0.1,0.7,0.2,1.1,0.4c0.9,0.5,1,0.9,1.1,1c0,0,0,0-0.1-0.1
			c0-0.1-0.5-0.4-0.7-0.4c-0.3-0.1-0.2,0,0.3,0l-2.6,2.4c0-0.4,0-0.6,0-0.3c0,0,0,0.1,0,0.1c0,0,0.1,0.3,0.2,0.3
			c0.1,0.2,0.2,0.3,0.2,0.3c0,0-0.1,0-0.5-0.5c-0.1-0.1-0.2-0.3-0.3-0.5c0-0.1-0.1-0.3-0.1-0.4l0-0.1l0-0.3c0-0.2,0-0.3,0-0.5
			c0-0.3,0-0.5,0-0.6l0.3-4l2.3,1.8c0.1,0.1,0.5,0.1,1.3,0.4c0.2,0.1,0.5,0.3,0.7,0.4c0.2,0.2,0.3,0.3,0.4,0.4
			c0.2,0.2,0.2,0.3,0.2,0.4l-3,0.2c0,0,0,0,0,0.1c0,0.1,0,0.5,0.1,0.6c0.2,0.3,0.2,0.1,0-0.1c-0.1-0.1-0.1-0.2-0.1-0.2
			c0,0,0.2-0.2,0.1-0.2c0,0,0-0.1-0.2,0.1c-0.1,0.2-0.3,0.3-0.5,0.5c-0.4,0.3-1,0.5-1.3,0.6c-0.2,0-0.3,0-0.5,0.1
			c-0.1,0.1-0.2,0.2-0.2,0.3c0,0.1-0.1,0.1-0.1,0.2c0,0,0,0,0,0.1C209.1,168,209,168.1,208.9,168.2z"/>
		<path d="M203.3,162.9c0,0-0.1-0.1-0.1-0.4c0-0.2,0.1-0.5,0.2-0.7l0.1-0.2l0-0.1l0.1-0.2l0.2-0.4c0.3-0.5,0.6-0.8,1.1-1.2
			c0.9-0.6,1.9-1,3-0.9c1.1,0,2.2,0.8,2.8,1.7c0.7,0.9,1.1,1.8,1.5,2.6l0.2,0.4l-0.5,0.4c-0.6,0.5-1,1.3-1.3,2.2
			c-0.2,0.4-0.4,0.8-0.6,1.1c-0.1,0.1-0.1,0.2-0.2,0.3l-0.1,0.1c-0.2,0.2-0.6,0.4-0.9,0.5c-0.5,0.2-0.7,0.1-0.9,0.2
			c-0.1,0-0.2,0,0,0.1l-2.6-2.8c-0.1,0.2-0.1,0-0.1-0.5c0.1-0.3,0.1-0.8,0.7-1.5l0.3-0.3l0.2-0.2c0.5-0.5,0.9-0.7,1-0.8l-0.2,4.3
			c-0.5-0.4-0.9-0.8-1.1-1.2c-0.3-0.4-0.5-0.7-0.6-1c-0.1-0.3-0.2-0.6-0.5-0.9c-0.1-0.1-0.1-0.2-0.2-0.2c-0.1-0.1-0.2-0.2-0.3-0.2
			l-0.2-0.1l-0.1-0.1c-0.1,0-0.2,0-0.2,0C203.6,163.2,203.3,163,203.3,162.9z M203.7,162.6c0.2-0.2,0.2-0.5,0.1-0.6l-0.1-0.1
			l0.1-0.1c0.1-0.1,0.1-0.1,0.2-0.2c0.3-0.3,0.6-0.5,1-0.6c0.8-0.3,1.7-0.3,2.5-0.1c0.8,0.2,1.4,0.5,1.9,0.8
			c0.5,0.3,0.9,0.6,1.2,0.9l2.9,2.4l-3,1.9c-0.5,0.3-0.7,0.4-0.8,0.4c0,0,0,0,0,0c0,0,0,0,0,0l0,0l0,0l0.1-0.1
			c0.5-0.6,0.4-0.9,0.5-1c0-0.2-0.1,0-0.2,0.5l-2.6-2.8c0.3,0,0.5,0,0.5,0c0,0,0,0-0.3,0.1c-0.1,0-0.4,0.2-0.6,0.3l0.1-0.1
			c0.1,0,0.2-0.1,0.3-0.1c0.4-0.2,0.8-0.2,1.2-0.3c0.9-0.2,1.7-0.4,2.4-0.8l-0.2,0.9c-0.1-0.6-0.8-1-1.5-0.8
			c-0.7,0.1-1.2,0.5-1.6,0.4c-0.5,0-1-0.1-1.6-0.2c-0.3-0.1-0.6-0.1-1-0.2l-0.3,0l-0.2,0l-0.1,0l0-0.1c0-0.1-0.1-0.3-0.2-0.4
			C204.1,162.5,203.9,162.5,203.7,162.6z"/>
	</g>
</g>
<path class="st3" d="M208.8,168c-1.7-1.1-3.3-2.1-5-3.2c-0.3-0.2-0.5-0.4-0.7-0.7c-0.1,0-0.2,0.1-0.3,0.1c0.2,0.5,0.3,1.1,0.6,1.6
	c1,1.6,2.5,2.7,4,3.6c1.3,0.7,2.7,1.4,4.1,1.7c2.1,0.5,4.2,0.4,6.2-0.7c1.3-0.8,2.1-2.7,1.7-4.2c-0.4-1.5-2.1-2.6-3.7-2.5
	c-0.2,0-0.4,0.1-0.4,0.2c-0.3,0.5-0.6,0.9-1,1.5c0.6,0.2,1.2,0.2,1.7,0.5c0.5,0.3,1.2,0.9,1.2,1.3c-0.1,0.6-0.7,1.2-1.2,1.5
	C213.5,169.8,211.1,169.4,208.8,168C208.8,167.9,208.8,168,208.8,168z"/>
<path class="st3" d="M203.5,162.8c2.5-1.2,3.8,0.6,5.4,1.9c-0.3,0.2-0.8,0.4-1.1,0.8c-0.2,0.2-0.1,0.5-0.2,0.8c0.2,0,0.5,0,0.7-0.1
	c1.1-0.8,2.1-1.7,3.1-2.5C210.4,160.8,206.1,160.4,203.5,162.8z"/>
<g>
	<path class="st2" d="M260.7,166.9c-1.7-0.9-3.3-1.7-4.7-2.5c-1.2-0.7-2.3-1.6-3.4-2.5c-4.5-3.2-9.5-4.4-14.9-2.8
		c-2,0.6-3.8,1.6-5.7,2.4c-0.2,0.1-0.4,0.3-0.7,0.5c4.5,2,7.7,5.2,10,9.4c1.5,2.7,2.5,5.6,3.2,8.7c1.1,5.2,1.1,10.4,0.1,15.6
		c-0.7,3.4-1.8,6.7-3.4,9.8c-2.5,4.9-5.9,9.1-10.3,12.6c-0.6,0.5-1.2,0.9-1.7,1.4c0,0-0.1,0.1-0.2,0.2c0.7,0.6,1.4,1.2,2.1,1.8
		c3.3,2.5,7,4.2,10.9,5.5c4.6,1.5,9.3,2.9,14.2,3.3c2.2,0.2,4.5,0,6.7-0.2c3.7-0.3,7.2-1.4,10.6-2.9c6.4-2.8,11.8-7,15.9-12.8
		c4.2-5.9,6.4-12.6,6.6-19.8c0.1-5-0.8-9.9-2.9-14.5c-1.5-3.3-3.6-6.2-6.5-8.3c-1.8-1.3-3.9-2.1-6.1-2.7c-3-0.8-5.9-0.3-8.9-0.2
		c-2.2,0.1-4.3-0.2-6.5-0.7"/>
	<path d="M260.6,167.1c-1.2-0.5-2.5-1-3.8-1.6c-1.2-0.5-2.5-1.2-3.6-2c-2.2-1.5-4.5-2.6-6.9-3.2c-2.4-0.5-4.9-0.5-7.2,0.2
		c-1.2,0.3-2.2,0.8-3.4,1.4l-1.8,0.9l-0.9,0.5l-0.1,0.1l0.1-0.1c0.1,0,0,0,0,0c-0.1,0.1-0.2,0.2-0.4,0.4l-0.4-3.5
		c1.4,0.6,2.8,1.3,4.1,2.2c1.3,0.9,2.5,2,3.5,3.1c2.1,2.3,3.8,5,5,7.8c1.2,2.8,1.9,5.8,2.3,8.8c0.4,3,0.3,6,0,9
		c-0.4,2.9-1,5.8-2,8.6c-1,2.8-2.3,5.4-3.8,7.9c-1.5,2.5-3.3,4.8-5.3,6.9c-1,1.1-2,2.1-3.1,3c-0.5,0.5-1.1,0.9-1.7,1.4l-0.8,0.7
		l-0.4,0.3c-0.1,0.1-0.1,0.1-0.2,0.2c0,0,0,0,0,0l-0.2-1c4.1,3.9,9.4,5.9,14.9,7.3c2.7,0.7,5.5,1.4,8.2,1.7c1.4,0.2,2.7,0.3,4.1,0.3
		c1.3,0,2.6-0.1,4-0.2l2.1-0.2c0.7-0.1,1.3-0.2,2-0.3c1.3-0.3,2.6-0.6,3.8-1c2.5-0.8,5-2,7.3-3.3c4.6-2.7,8.6-6.4,11.5-10.8
		c3-4.4,5-9.4,5.7-14.6c0.7-5.3,0.3-10.7-1.5-15.7c-0.9-2.5-2.1-4.8-3.8-6.8c-0.8-1-1.8-1.9-2.8-2.6c-1-0.7-2.2-1.3-3.4-1.8
		c-0.6-0.2-1.3-0.5-1.9-0.6c-0.6-0.2-1.3-0.3-1.9-0.4c-1.3-0.2-2.7-0.2-4.1-0.2c-1.4,0-2.9,0-4.4-0.2c-1.5-0.2-2.9-0.6-4.2-1.1
		l0.1-0.5c1.4,0.2,2.8,0.3,4.2,0.3c1.4,0,2.7-0.2,4.2-0.4c1.4-0.2,2.9-0.4,4.4-0.4c0.8,0,1.5,0.1,2.3,0.2c0.8,0.1,1.5,0.3,2.2,0.5
		c1.5,0.4,2.9,1,4.3,1.8c1.4,0.8,2.6,1.8,3.7,2.9c2.2,2.2,3.9,4.9,5.1,7.7c1.3,2.8,2,5.8,2.5,8.8c0.4,3,0.5,6.1,0.2,9.1
		c-0.6,6.1-2.9,12.1-6.4,17.1c-3.5,5.1-8.2,9.2-13.6,12c-2.7,1.4-5.4,2.6-8.4,3.4c-1.5,0.4-3,0.8-4.5,1c-0.8,0.1-1.5,0.2-2.3,0.2
		c-0.7,0.1-1.4,0.1-2.2,0.1c-1.5,0.1-3,0.1-4.6-0.1c-1.5-0.2-3-0.4-4.4-0.8c-2.9-0.7-5.7-1.6-8.4-2.6c-2.7-1-5.4-2.1-8-3.5
		c-1.3-0.7-2.6-1.5-3.8-2.3c-1.2-0.8-2.2-1.9-3.4-2.8l-0.5-0.4l0.4-0.6c0.1-0.1,0.2-0.3,0.3-0.4c0.1-0.1,0.1-0.1,0.2-0.2l0.4-0.3
		l0.8-0.7c0.6-0.5,1.1-0.9,1.6-1.3c1.1-0.9,2.1-1.9,3-2.9c1.9-2.1,3.5-4.4,4.7-6.8c1.3-2.5,2.3-5.1,2.9-7.7c0.7-2.7,1-5.4,1-8.1
		c0.1-2.7-0.2-5.4-0.6-8.1c-0.5-2.6-1.2-5.2-2.2-7.7c-1-2.4-2.3-4.7-4-6.6c-1.7-1.9-3.7-3.4-6.1-4.6l-3.3-1.6l2.9-1.9
		c0.1,0,0.2-0.1,0.4-0.3c0.1-0.1,0.2-0.2,0.4-0.3c0.1-0.1,0.2-0.1,0.3-0.2l0.1,0l0.9-0.4l1.9-0.8c1.3-0.5,2.7-1,4.2-1.3
		c2.9-0.6,6-0.5,8.8,0.5c1.4,0.5,2.7,1.1,3.9,1.9c1.2,0.8,2.3,1.6,3.3,2.5c1,0.9,2,1.7,3.1,2.4c1.1,0.7,2.2,1.5,3.4,2.2L260.6,167.1
		z"/>
</g>
<g>
	<path class="st3" d="M264.5,172.9c0.2-1.7,0.2-1.7,1.8-1.6c0.6,0,1.2,0.1,1.8,0.2c1.3,0.2,2.1,1.1,2.4,2.7c0.3,1.4-0.4,3-1.4,3.6
		c-1.5,0.8-3,1.2-4.8,1.1c-3.3-0.2-6-1.7-8.4-3.9c-0.8-0.7-1.3-1.7-1.9-2.5c-0.1-0.2-0.1-0.6-0.1-0.8c1.7,1.2,3.4,2.3,5.1,3.5
		c1.9,1.3,4,1.7,6.2,1.7c1.1,0,2-0.3,2.7-1.2c0.7-0.9,0.5-1.6-0.5-1.9C266.3,173.4,265.4,173.2,264.5,172.9z"/>
	<path d="M264.4,172.9c0-0.4,0-0.7,0-1c0-0.2,0.1-0.3,0.2-0.5c0.1-0.2,0.4-0.2,0.5-0.3c0.7-0.1,1.3,0,2,0.1l1,0.1
		c0.4,0,0.7,0.1,1,0.3c0.7,0.3,1.2,1,1.4,1.6c0.6,1.3,0.4,2.9-0.4,4.1c-0.2,0.3-0.5,0.6-0.8,0.8c-0.3,0.2-0.6,0.3-0.9,0.4
		c-0.6,0.2-1.3,0.4-2,0.5c-1.3,0.2-2.7,0.1-4-0.2c-1.3-0.3-2.5-0.7-3.7-1.4c-1.2-0.6-2.2-1.4-3.2-2.3c-0.5-0.5-0.9-1-1.3-1.5
		l-0.6-0.8c-0.1-0.1-0.1-0.1-0.2-0.2c-0.1-0.1-0.1-0.3-0.1-0.4c0-0.2,0-0.4,0-0.5l-0.2-1l0.9,0.6l4.4,2.9c1.4,1.1,2.9,1.7,4.6,2
		c0.8,0.1,1.7,0.2,2.5,0.2c0.8-0.1,1.5-0.5,2-1.1c0.2-0.3,0.4-0.6,0.2-0.9c-0.1-0.3-0.5-0.4-0.9-0.6L264.4,172.9z M264.5,172.9
		l2.6,0.5c0.4,0.1,1,0.2,1.3,0.7c0.2,0.3,0.2,0.6,0.1,0.9c-0.1,0.3-0.2,0.5-0.3,0.7c-0.5,0.8-1.5,1.4-2.4,1.5c-1,0.1-1.8,0.1-2.8,0
		c-0.9-0.1-1.8-0.3-2.7-0.7c-0.9-0.3-1.7-0.9-2.4-1.4l-4.3-3.1l0.7-0.4c0,0.3,0,0.4,0,0.5c0,0.1,0,0.1,0,0.1c0,0,0.1,0.1,0.1,0.2
		l0.5,0.8c0.3,0.5,0.7,1.1,1.1,1.5c0.9,0.9,1.9,1.7,3,2.4c2.2,1.3,4.9,1.9,7.3,1.3c0.6-0.1,1.2-0.4,1.8-0.6c0.3-0.1,0.6-0.3,0.8-0.4
		c0.2-0.1,0.4-0.3,0.5-0.6c0.3-0.5,0.5-1,0.6-1.6c0.1-0.6,0-1.2-0.2-1.7c-0.2-0.5-0.5-1-1-1.3c-0.2-0.1-0.5-0.3-0.8-0.3l-0.9-0.2
		c-0.6-0.1-1.3-0.2-1.9-0.2C264.6,171.4,264.7,172.4,264.5,172.9z"/>
</g>
<g>
	<path class="st3" d="M258.9,172.9c-0.9-0.6-1.7-1.4-2.5-1.7c-0.9-0.3-1.9-0.2-2.8-0.2c0.9-1.3,4.5-1.4,5.7-1
		c0.1,0.1,0.3,0.3,0.3,0.5C259.4,171.3,259.2,172,258.9,172.9z"/>
	<path d="M259,173c-0.6-0.2-1-0.4-1.4-0.6c-0.4-0.2-0.8-0.5-1.2-0.6c-0.8-0.3-1.8-0.5-2.8-0.6l-0.3,0l0.2-0.2c0.5-0.7,1.3-1,2-1.3
		c0.8-0.2,1.5-0.3,2.3-0.4c0.4,0,0.8,0,1.2,0.1c0.1,0,0.2,0.1,0.3,0.1c0,0,0,0,0.1,0c0.1,0,0.1,0.1,0.2,0.1c0.1,0.1,0.1,0.1,0.2,0.2
		c0.1,0.1,0.1,0.3,0.2,0.5c0,0.1,0,0.1,0,0.2l0,0.1l-0.1,0.2C259.6,171.7,259.2,172.4,259,173z M258.9,172.9c0.1-0.9,0-1.6,0.1-2.3
		l0-0.1l0-0.1c0,0,0,0.1,0,0.1c0,0,0,0,0,0c0,0,0,0,0,0c0,0,0,0,0.1,0c0,0,0,0,0,0c-0.1,0-0.1,0-0.2,0c-0.3,0-0.7-0.1-1-0.1
		c-0.7-0.1-1.4,0-2.2,0c-0.7,0-1.5,0.2-1.9,0.7l-0.1-0.2c0.5,0,1-0.1,1.5-0.1c0.5-0.1,1.1-0.1,1.6,0.2c0.5,0.2,0.9,0.5,1.3,0.9
		C258.3,172.1,258.7,172.5,258.9,172.9z"/>
</g>
<g>
	<path class="st1" d="M244.2,65.6c0.5,0.1,5-4.9,5.7-5.5c2.2-2,4.4-3.8,6.8-5.6c4.6-3.4,9.7-6.2,15.3-7.7c7.7-2.1,16.2-1.9,23.4,1.9
		c2.1,1.1,4.1,2.6,5.9,4.3c0,0,14.6,11.8,22.8,27.1c0,0,12.3,22.2,15.7,31.4l-14.4-4.8l-11.3-3.4l-12.2-3.3l-11.5-2.6l-8.1-1.6
		c0,0-8.2-1.3-10.9-2.1c-2.9-0.9-5.9-1.5-8.7-2.9c-5.2-2.6-12-8.2-14.6-13.5c-1-2.1-1.6-4.5-2.4-6.7l-3-0.7l-4.2-0.4l-2.5,0.1
		l-2.9,0.5l1.3,1.4l1.2,1.2l6.9,7.3l3.1,3.6l4.1,5.5l5.4,8.7l3.5,6.9l4.2,11l1.8,6.2l1.3,6.1l1.2,9.1l0.3,4.6l0,5.9l-0.2,5.3
		l-1.1,10.3l-0.8,4.9c0,0-0.6,4.8-0.6,4.8c1,0.4,1.9,0.8,2.9,1.2c0.1,0,0.1,0,0.2,0.1c0.1,0.1,0.2,0.3,0.1,0.4
		c0,0.2-0.1,0.3-0.2,0.4c-0.4,0.5-1.1,0.9-1.8,0.9c-1.4,0.1-2.6-0.2-2.6-0.2s-2.3-0.5-2.3-0.5c-1.3-0.7-2.4-1.5-3.5-2.5
		c0.6,0.1,1.2,0.1,1.8,0.2c0.1,0,0.8-1.6,0.9-1.8l0.9-4.2l0.8-4.5l0.4-3l0.3-3.6l0.4-6.8l0.1-3.8c0,0-0.4-8.8-0.5-9.9
		c-0.1-1.1-0.4-2.8-0.4-2.8l-0.9-5.6l-1.2-5.3c0,0-1.1-3.7-1.1-3.7c-3.8-11.5-9.5-21.7-16.6-31.4l-2.5-3l-3.2-3.5l-2.6-2.6l0.6,3.5
		l0.9,4.6c0,0,1,8.9,1,8.9c0.4,15.6-3.2,30.3-8.6,44.7l-2.6,6l-3.6,7.3l-3.9,7.1l-2.2,3.8c0,0-1.2,1.9-1.2,1.9
		c-0.1,0.2,0.4,1.1,0.5,1.3c1.2,5.2-5.2,1.9-7.1,0.8c0.1-0.5,0.1-0.9,0.2-1.4c0-0.1,0-0.2,0.1-0.4c0.1-0.1,0.2-0.2,0.4-0.3
		c0.8-0.5,1.4-1.2,2-1.9c0,0,1.4-2.5,1.4-2.5l2.1-3.4l2.8-5l1.7-3.3l1.8-3.8l4.4-10.1l1.4-3.9l1-3.2l2.2-8.1l0.6-2.7l0.5-2.5l1-5.8
		l0.4-2.9l0.2-2.2l0.1-2.4l-0.1-4.1l-0.2-4l-0.3-4.1l-0.4-3.4l-0.5-2.9l-0.7-3.2l-0.9-3.1l-1.1-3l-0.8-1.9l-0.7-1.6
		c0,0-0.8-1,1.4-2.3l3.2-1.8l2.5-0.8l2.1-0.4l3-0.1l3.2,0.3l1.8,0.2C243.6,65.5,244.2,65.6,244.2,65.6z"/>
	<path d="M244.2,65.5c0,0,0.2-0.1,0.3-0.2c0.1-0.1,0.3-0.2,0.4-0.3c0.3-0.2,0.5-0.5,0.7-0.7c0.5-0.5,1-1,1.4-1.5c0.9-1,1.8-2,2.8-3
		c2-1.8,4.1-3.6,6.3-5.2c4.4-3.2,9.1-6.1,14.4-7.7c5.2-1.6,10.8-2.3,16.3-1.5c5.5,0.8,10.7,3.2,14.8,7.1l0,0
		c4.6,3.8,8.8,7.9,12.8,12.4c3.9,4.4,7.5,9.3,10.5,14.5c2.9,5.1,5.7,10.3,8.5,15.5c1.4,2.6,2.7,5.2,4,7.9c1.3,2.7,2.6,5.3,3.6,8.2
		l1,2.6l-2.7-0.9c-4.2-1.4-8.5-2.8-12.7-4.2c-4.2-1.4-8.5-2.6-12.8-3.9c-4.3-1.2-8.6-2.4-12.9-3.5l-6.5-1.5
		c-2.2-0.5-4.3-1.1-6.5-1.5c-2.2-0.4-4.4-0.9-6.5-1.3c-2.2-0.4-4.4-0.8-6.6-1.2c-1.1-0.2-2.2-0.5-3.3-0.8l-3.2-0.9
		c-2.2-0.6-4.4-1.3-6.4-2.4c-4.1-2.2-7.6-5.1-10.7-8.5c-1.5-1.7-2.9-3.6-3.8-5.7c-0.9-2.1-1.4-4.3-2.1-6.4l0.5,0.4l-3-0.7l0.1,0
		l-4.2-0.4l0.1,0l-2.5,0.1l0.1,0l-2.9,0.5l0.3-0.9c0.5,0.6,1,1.1,1.5,1.7c0.5,0.5,1.1,1.1,1.6,1.7l3.1,3.4l3.1,3.4l3,3.5l0,0l0,0
		l4.1,5.5l0,0l0,0c1.8,2.9,3.6,5.8,5.4,8.7l0,0l0,0l3.5,6.9l0,0l0,0l4.3,11l0,0l0,0l1.8,6.2l0,0l0,0l1.3,6.1l0,0l0,0l1.3,9.1l0,0
		l0,0l0.3,4.5l0.1,4.5c0.1,1.5,0,3-0.1,4.5l-0.1,2.3l-0.2,2.3c-0.3,3-0.6,6-1,9l-0.7,4.5l-0.6,4.5l-0.5-1l1.8,0.7l0.9,0.4
		c0.1,0,0.1,0,0.3,0.1c0.1,0,0.2,0.1,0.3,0.1c0.1,0.1,0.2,0.2,0.3,0.3c0.3,0.5,0.3,1,0.1,1.3c-0.1,0.4-0.3,0.5-0.5,0.7
		c-0.2,0.2-0.3,0.3-0.5,0.5c-0.4,0.3-0.8,0.5-1.2,0.6c-0.2,0.1-0.4,0.1-0.7,0.1c-0.2,0-0.4,0-0.6,0c-0.4,0-0.7,0-1.1,0
		c-0.7-0.1-1.5-0.3-2.2-0.4l-1.1-0.2l-0.5-0.1c-0.2,0-0.3-0.1-0.5-0.2c-1.2-0.7-2.4-1.5-3.4-2.5l-2.1-2.1l3,0.3l1,0.1l0.5,0l0.2,0
		l0.1,0c0,0,0,0-0.1,0c-0.1,0-0.1,0-0.2,0c-0.1,0-0.3,0.1-0.4,0.2c0,0-0.1,0.1-0.1,0.1l0,0l0,0c0,0-0.1,0.1-0.1,0.1
		c0-0.1,0.2-0.4,0.3-0.7l0.4-0.9l-0.1,0.2c0.8-3.6,1.5-7.2,1.9-10.8c0.4-3.6,0.6-7.3,0.8-11c0.1-3.6-0.2-7.3-0.4-10.9
		c0-3.6-0.9-7.3-1.4-10.9l0,0.1c-1.1-4.7-2.2-9.2-4-13.6c-1.7-4.4-3.8-8.7-6.1-12.8c-2.3-4.1-4.9-8.1-7.6-11.9l-1-1.4
		c-0.4-0.5-0.7-0.9-1.1-1.4c-0.8-0.9-1.5-1.8-2.3-2.7l-2.4-2.6l-2.5-2.5l2.6-1.4l0.4,2c0.1,0.7,0.2,1.3,0.4,2l0.8,4l0,0.1l0,0.1
		l0.7,6l0.3,3l0,3c0,4-0.3,8.1-0.8,12.1c-1.1,8-3,15.9-5.6,23.5c-2.4,7.7-6,15-9.8,22l-2.9,5.2c-1,1.7-2,3.5-3.1,5.1l-0.2,0.3
		l-0.1,0.2l0,0c0,0,0,0,0.1-0.2c0.1-0.1,0.1-0.2,0.1-0.4l0-0.2c0-0.2,0-0.2,0-0.2c0-0.1,0,0,0,0.1l0.1,0.3l0.2,0.4l0.1,0.2l0.1,0.2
		l0,0.1l0,0.2c0.1,0.3,0.1,0.6,0.1,0.9c0,0.6,0,1.6-0.7,2.4c-0.4,0.4-0.8,0.7-1.3,0.8c-0.4,0.1-0.8,0.2-1.2,0.1
		c-1.4-0.1-2.4-0.5-3.4-0.9c-1-0.4-1.9-0.9-2.8-1.4l-0.8-0.5l0.1-0.9l0.2-1.2c0-0.1,0-0.2,0.1-0.4c0-0.2,0.3-0.7,0.5-0.9
		c0.2-0.2,0.4-0.3,0.5-0.4l0.2-0.1c0.5-0.3,1-0.9,1.6-1.6l-0.2,0.2l1.6-2.7l1.6-2.6c1.1-1.7,2-3.5,3.1-5.3c2-3.5,3.7-7.2,5.4-10.9
		l2.5-5.6c0.4-0.9,0.7-1.9,1.1-2.8c0.4-0.9,0.7-1.9,1-2.9c0.7-1.9,1.2-3.9,1.8-5.8c0.5-2,1.2-3.9,1.6-5.9c0.5-2,0.9-4,1.3-6l0.6-3
		c0.2-1,0.3-2,0.4-3c0.5-4,0.4-8.1,0.2-12.2C231.3,90,231,86,230.1,82c-0.9-4-2.2-7.9-3.8-11.6l0,0c-0.4-0.7,0-1.4,0.4-1.8
		c0.4-0.4,0.9-0.8,1.4-1l2.9-1.6l0,0l0,0l2.5-0.8l0,0l0,0l2.1-0.4l0,0l0,0l3-0.1l0,0l0,0l2.5,0.2c0.8,0.1,1.6,0.2,2.5,0.3l0,0l0,0
		L244.2,65.5z M244.1,65.8l-0.6-0.2l0,0c-0.8-0.1-1.6-0.2-2.5-0.3l-2.5-0.2l0,0l-3,0.1l0,0l-2.1,0.4l0,0l-2.5,0.8l0,0l-2.9,1.6
		c-0.5,0.3-0.9,0.6-1.3,0.9c-0.4,0.4-0.6,0.9-0.3,1.2l0,0l0,0c1.7,3.7,3.1,7.6,4,11.6c1,4,1.4,8.1,1.6,12.2
		c0.2,4.1,0.5,8.2,0.1,12.3c-0.1,1-0.2,2.1-0.4,3.1l-0.5,3c-0.3,2-0.7,4-1.2,6.1c-0.4,2-1,4-1.5,6c-0.5,2-1,4-1.7,5.9
		c-0.3,1-0.6,2-1,2.9c-0.4,1-0.6,2-1.1,2.9l-2.4,5.7c-1.6,3.8-3.2,7.6-5.2,11.2c-1,1.8-2,3.6-3,5.4l-1.6,2.6l-1.5,2.7l-0.1,0.1
		l-0.1,0.1c-0.5,0.6-1.1,1.3-2,2c-0.1,0.1-0.2,0.2-0.3,0.2c-0.1,0-0.1,0.1,0,0c0.1-0.1,0.2-0.3,0.2-0.3c0-0.1,0,0.1,0,0.2l-0.2,1.2
		l-0.6-1.4c0.8,0.5,1.7,0.9,2.5,1.2c0.8,0.3,1.7,0.6,2.4,0.6c0.3,0,0.4-0.1,0.3,0c-0.1,0.1,0-0.1,0-0.4c0-0.2,0-0.3-0.1-0.5l0-0.1
		c0,0,0,0,0,0c0,0,0,0.1,0,0.1c0,0,0,0,0,0l-0.1-0.3l-0.2-0.4c-0.1-0.2-0.1-0.3-0.2-0.6c0-0.1,0-0.2,0-0.4c0-0.1,0-0.1,0-0.2
		c0-0.1,0.1-0.3,0.1-0.4c0.1-0.2,0.1-0.2,0.1-0.2l0,0l0.1-0.2l0.2-0.3c1.1-1.7,2-3.4,3-5.1l2.9-5.2c3.7-7,7.2-14,9.5-21.6
		c2.5-7.5,4.4-15.1,5.4-22.9c0.5-3.9,0.8-7.8,0.8-11.7l0-2.9l-0.3-2.9l-0.7-5.8l0,0.1l-0.8-4.1c-0.1-0.7-0.2-1.4-0.4-2l-0.4-2
		l-0.8-4.9l3.5,3.5l2.6,2.6l2.4,2.7c0.8,0.9,1.6,1.8,2.4,2.8c0.4,0.5,0.8,0.9,1.2,1.4l1.1,1.5c2.8,4,5.4,8,7.7,12.3
		c2.3,4.2,4.4,8.6,6.2,13.2c0.9,2.3,1.7,4.5,2.3,6.9l0.5,1.8l0.4,1.8l0.8,3.5l0,0.1l0,0l0.8,5.5l0.3,2.8l0.1,2.8
		c0.1,3.8,0.4,7.5,0.2,11.3c-0.3,3.7-0.5,7.4-0.9,11.2c-0.4,3.7-1.2,7.4-2.1,11l0,0.1l0,0.1l-0.4,0.9c-0.2,0.3-0.2,0.6-0.5,1
		c0,0-0.1,0.1-0.1,0.2l0,0l0,0c0,0-0.1,0.1-0.1,0.1c-0.1,0.1-0.3,0.1-0.4,0.2c-0.1,0-0.1,0-0.2,0l-0.1,0l-0.1,0l-0.2,0l-0.5,0
		l-1-0.1l0.8-1.8c0.9,0.9,1.8,1.6,2.9,2.2c0.1,0.1,0.3,0.2,0.4,0.2l0.4,0.1l0.9,0.2c0.6,0.1,1.1,0.3,1.7,0.3c0.3,0,0.6,0.1,0.9,0.1
		l0.4,0c0.1,0,0.2,0,0.3,0c0.2-0.1,0.4-0.1,0.6-0.3c0.1-0.1,0.2-0.1,0.2-0.2c0.1-0.1,0.1-0.1,0.1-0.1c0,0-0.1,0.2,0.1,0.4
		c0,0,0.1,0.1,0.1,0.1c0,0,0,0,0,0c0.1,0-0.1,0-0.1-0.1l-0.9-0.4l-1.8-0.8l-0.6-0.3l0.1-0.7l0.6-4.5l0.8-4.4c0.4-3,0.7-5.9,1.1-8.9
		l0.3-2.2l0.1-2.2c0.1-1.5,0.2-3,0.2-4.5l0-4.5l-0.2-4.5l0,0l-1.2-9.2l0,0l-1.3-6.1l0,0l-1.8-6.2l0,0l-4.2-11l0,0l-3.5-6.9l0,0
		c-1.8-2.9-3.6-5.8-5.4-8.7l0,0l-4.1-5.5l0,0l-3-3.4l-3.2-3.3l-3.2-3.3c-0.5-0.6-1.1-1.1-1.6-1.6c-0.5-0.5-1.1-1.1-1.6-1.7l-0.7-0.8
		l1-0.2l2.9-0.5l0,0l0,0l2.5-0.2l0,0l0,0l4.2,0.4l0,0l0,0l3,0.7l0.3,0.1l0.1,0.3c0.8,2.1,1.3,4.3,2.2,6.3c0.9,1.9,2.2,3.7,3.7,5.3
		c3,3.2,6.5,5.9,10.4,7.9c1.9,1,4,1.6,6.1,2.2l3.2,0.9c1,0.3,2.1,0.5,3.2,0.7c2.2,0.4,4.4,0.8,6.6,1.1c2.2,0.4,4.4,0.8,6.6,1.2
		c4.4,0.8,8.8,1.9,13.2,2.9c4.3,1.1,8.7,2.3,13,3.5c4.3,1.3,8.6,2.5,12.9,3.8c4.3,1.4,8.5,2.8,12.7,4.3l-1.7,1.7
		c-1-2.7-2.2-5.3-3.5-8c-1.3-2.6-2.6-5.3-3.9-7.9c-2.6-5.2-5.4-10.4-8.2-15.6c-2.7-5.1-6.1-9.9-9.9-14.4c-3.8-4.5-7.9-8.7-12.3-12.5
		l0,0l0,0c-3.8-3.8-8.8-6.2-14-7.1c-5.3-0.9-10.8-0.4-16,1.1c-5.2,1.6-10,4.3-14.3,7.5c-2.2,1.6-4.3,3.3-6.3,5.2
		c-1,0.9-1.9,2-2.8,2.9c-0.5,0.5-0.9,1-1.4,1.5c-0.2,0.2-0.5,0.5-0.8,0.7c-0.1,0.1-0.3,0.2-0.4,0.3
		C244.6,65.6,244.5,65.8,244.1,65.8z"/>
</g>
<g>
	<path class="st4" d="M249.2,68.2c0,0,2.6-0.9,6.6-1.7c8-1.5,16.4-1.7,24.1,1.1c14.5,5.2,30.4,13.1,41.8,25.1c2.7,2.8,5.2,6,7,9.8
		c-0.6-1.3-3.3-2.5-4.4-3.3c-2.7-2.1-5.4-4.1-8.1-6.2c-7.8-6-15.6-10.7-24.2-14.8c-8-3.9-16.6-7.7-25.3-9.5
		C261.1,67.6,255,68.3,249.2,68.2z"/>
	<path class="st5" d="M249.2,68.2c3.7-1.2,7.5-1.9,11.3-2.4c3.8-0.5,7.7-0.5,11.5,0c1.9,0.2,3.8,0.6,5.7,1.1
		c1.9,0.5,3.7,1.2,5.5,1.9c3.6,1.4,7.2,2.9,10.6,4.5c7,3.3,13.7,7.2,19.8,11.9c3,2.4,5.9,5,8.6,7.8c2.6,2.8,5,6,6.7,9.4l-0.3,0.1
		c-0.4-0.8-1.2-1.3-2-1.8c-0.8-0.5-1.6-0.9-2.3-1.5l-4.4-3.4c-2.9-2.3-5.8-4.5-8.9-6.7c-6.1-4.2-12.5-7.9-19.2-11.1
		c-6.7-3.2-13.4-6.3-20.6-8.3c-1.8-0.5-3.6-0.9-5.4-1.3c-1.8-0.3-3.7-0.4-5.5-0.5C256.6,68,252.9,68.3,249.2,68.2z M249.2,68.2
		c3.7,0,7.4-0.2,11.1-0.1c1.9,0,3.7,0.2,5.5,0.5c1.8,0.3,3.6,0.7,5.4,1.2c7.1,2,13.9,5.1,20.6,8.3c6.7,3.2,13.1,6.9,19.2,11.1
		c3.1,2.1,6,4.4,8.9,6.6l4.4,3.4c0.7,0.5,1.6,1,2.3,1.5c0.8,0.5,1.6,1,2.1,1.9l-0.3,0.1c-1.7-3.5-4-6.6-6.6-9.4
		c-2.6-2.8-5.5-5.4-8.5-7.8c-6.1-4.7-12.8-8.7-19.7-12c-3.5-1.7-7-3.2-10.6-4.5c-1.8-0.7-3.6-1.4-5.4-1.9c-1.8-0.5-3.7-0.9-5.7-1.2
		c-3.8-0.5-7.7-0.4-11.5,0C256.7,66.3,252.9,67,249.2,68.2z"/>
</g>
</svg>
