<svg enable-background="new 0 0 35.003 24.707" height="24.707" viewBox="0 0 35.003 24.707" width="35.003" xmlns="http://www.w3.org/2000/svg"><path d="m15.521 0c-6.771.42-15.521 4.731-15.521 14.716 0 5.677 2.708 9.984 8.333 9.984 3.646 0 6.98-2.941 6.98-6.41 0-4.312-2.917-6.518-6.146-6.518-1.771 0-3.542.525-4.583 1.473-.417.42-.834.315-.834-.528-.104-6.621 5.417-10.614 12.292-11.35zm18.959 0c-6.771.42-15.521 4.731-15.521 14.716 0 5.677 2.812 9.984 8.438 9.984 3.646 0 6.875-2.836 6.875-6.41.104-4.312-2.916-6.518-6.146-6.518-1.772 0-3.543.525-4.479 1.473-.418.42-.835.315-.835-.528-.104-6.621 5.417-10.614 12.189-11.35z" fill="#fff"/></svg>