<?xml version="1.0" encoding="utf-8"?>
<!-- Generator: Adobe Illustrator 25.3.1, SVG Export Plug-In . SVG Version: 6.00 Build 0)  -->
<svg version="1.1" id="Layer_1" focusable="false" xmlns="http://www.w3.org/2000/svg" xmlns:xlink="http://www.w3.org/1999/xlink"
	 x="0px" y="0px" width="18.2px" height="18.2px" viewBox="0 0 18.2 18.2" style="enable-background:new 0 0 18.2 18.2;"
	 xml:space="preserve">
<path d="M1.3,18.2c-0.4-0.4-0.9-0.9-1.3-1.3c2.6-2.6,5.2-5.2,7.8-7.8C5.2,6.5,2.6,3.9,0,1.3C0.4,0.9,0.9,0.4,1.3,0
	c2.6,2.6,5.2,5.2,7.8,7.8c2.6-2.6,5.2-5.2,7.8-7.8c0.4,0.4,0.9,0.9,1.3,1.3c-2.6,2.6-5.2,5.2-7.8,7.8c2.6,2.6,5.2,5.2,7.8,7.8
	c-0.4,0.4-0.9,0.9-1.3,1.3c-2.6-2.6-5.2-5.2-7.8-7.8C6.5,13,3.9,15.6,1.3,18.2z"/>
</svg>
