<svg enable-background="new 0 0 15.912 20" height="20" viewBox="0 0 15.912 20" width="15.912" xmlns="http://www.w3.org/2000/svg"><g fill="#231f20"><path d="m15.912 20h-15.912v-14.017h15.912zm-14.994-.918h14.074v-12.18h-14.074z"/><path d="m12.504 6.442h-.919v-1.897c0-2-1.63-3.627-3.631-3.627-2 0-3.626 1.627-3.626 3.627v1.897h-.919v-1.897c0-2.505 2.039-4.545 4.545-4.545 2.509 0 4.55 2.04 4.55 4.546z"/><path d="m8.889 16.488h-4.384c.129 0 .287.025.438-.02.155-.047.31-.07.452-.145s.279-.146.403-.248c.125-.102.241-.209.345-.336.102-.123.191-.254.265-.396.075-.145.136-.295.182-.449s.067-.312.099-.469c.053.58.28 1.014.695 1.43.415.418.923.633 1.505.633"/><path d="m8.43 15.244c0-.592.033-1.098-.387-1.512-.421-.416-.771-.639-1.358-.689.59-.053.858-.277 1.279-.693s.466-.926.466-1.514z"/><path d="m9.275 9.488h2.154v2.161c0-.582-.266-1.068-.68-1.481-.411-.413-.894-.568-1.474-.68"/><path d="m6.43 11.648c0-1.164-.774-2.048-1.947-2.161h1.947z"/></g></svg>