<?xml version="1.0" encoding="utf-8"?>
<!-- Generator: Adobe Illustrator 24.2.3, SVG Export Plug-In . SVG Version: 6.00 Build 0)  -->
<svg version="1.1" id="Layer_1" xmlns="http://www.w3.org/2000/svg" xmlns:xlink="http://www.w3.org/1999/xlink" x="0px" y="0px"
	 width="20px" height="20px" viewBox="0 0 20 20" style="enable-background:new 0 0 20 20;" xml:space="preserve">
<path d="M13.3,13.9c-3.4,3-8.3,2.6-11.1-0.5c-2.9-3.1-2.9-7.8,0-10.8C5-0.5,9.7-0.9,12.9,1.7c1.8,1.4,2.8,3.3,3,5.5
	c0.2,2.3-0.5,4.2-2,6c0,0,0,0,0.1,0c2,2,3.9,3.9,5.9,5.9c0.1,0.1,0.2,0.3,0.1,0.5c-0.1,0.3-0.5,0.4-0.7,0.2c0,0-0.1,0-0.1-0.1
	C17.3,17.9,15.3,15.9,13.3,13.9C13.3,13.9,13.3,13.9,13.3,13.9z M8,0.9C4.1,0.9,1,4,0.9,7.8C0.8,11.8,4,15,8,15
	c3.9,0,7.1-3.2,7.1-7.1C15,4.1,11.9,0.9,8,0.9z"/>
</svg>
