<?xml version="1.0" encoding="utf-8"?>
<!-- Generator: Adobe Illustrator 25.0.1, SVG Export Plug-In . SVG Version: 6.00 Build 0)  -->
<svg version="1.1" id="Layer_1" xmlns="http://www.w3.org/2000/svg" xmlns:xlink="http://www.w3.org/1999/xlink" x="0px" y="0px"
	 width="493px" height="51.3px" viewBox="0 0 493 51.3" style="enable-background:new 0 0 493 51.3;" xml:space="preserve">
<style type="text/css">
	.st0{fill:#241321;}
</style>
<path class="st0" d="M16.3,50.7H0v-0.6c4-0.5,4.7-1.8,4.7-6.6V23.3H0.4v-0.6l4.2-2.7v-6.4c0-8.5,6.4-13,13.6-13.7v0.4
	c-6,0.9-7.4,6.5-7.4,11.4v8.7h8.4l-0.7,2.7h-7.7v20.2c0,4.8,1.7,6.4,5.5,6.6V50.7z M24.2,4.8c0,1.9-1.5,3.4-3.3,3.4
	s-3.3-1.5-3.3-3.4c0-1.8,1.5-3.3,3.3-3.3S24.2,3,24.2,4.8z"/>
<path class="st0" d="M40.6,9.4c0-2.4-1.2-3.5-1.9-4.1c-0.6-0.5-1.2-0.9-1.9-1.2V3.6L46.9,0L47,0.1c-0.1,3-0.2,7.2-0.2,10.1v33.3
	c0,4.7,0.9,6.1,4.8,6.6v0.6H35.9v-0.6c4-0.5,4.7-1.8,4.7-6.6V9.4z"/>
<path class="st0" d="M81.6,20.6c-4,0.7-6.5,5.8-6.5,12.2c0,7.3,3.8,13.6,10.9,13.6c5.3,0,8.4-2.3,10-4.6l0.4,0.3
	c-1.2,3.2-5.5,9.1-13.1,9.1c-9,0-14.3-7.1-14.3-15.4c0-8.8,6.4-15.1,12.6-15.8V20.6z M77.8,30.8v-0.5l11-0.9c-0.3-4.5-1.5-8.7-5-9
	v-0.6c6.6,0.2,11.4,5.4,11.4,10.9H77.8z"/>
<path class="st0" d="M116.6,28.4c0-4.8-0.2-6-4.7-6.6v-0.6l10.7-1.1l0.1,0.1v19.6c0,5.4,1.4,7.3,6,7.3c2.4,0,3.9-0.5,5.5-1.5v0.3
	c-1.9,3-5,5.3-9.3,5.3c-6.1,0-8.4-3.7-8.4-9.4V28.4z M142.3,44.1c0,3.2,0.8,3.7,2.2,4c1.1,0.3,1.9,0.4,2.8,0.6v0.5l-11,1.9l-0.2-0.1
	V28.4c0-4.8-0.7-6-5.2-6.6v-0.6l11.2-1.1l0.1,0.1V44.1z"/>
<path class="st0" d="M174.5,43.5c0,5,1.8,6.2,5.5,6.6v0.6h-16.3v-0.6c4-0.5,4.7-1.8,4.7-6.6V29.2c0-2.4-1.2-3.5-1.9-4.1
	c-0.6-0.5-1.2-0.9-1.9-1.2v-0.4l9.9-3.7l0.1,0.1V43.5z M180.6,25.1c0-0.9,0.4-2,0.7-2.4c-0.1-0.1-0.4-0.1-0.6-0.1
	c-1.2,0-3,0.8-4.3,3.4v-0.3c0.9-3,3.7-5.8,6.6-5.8c3.2,0,4.7,1.8,4.7,4.5c0,2.6-1.7,4-3.7,4C182,28.4,180.6,27.1,180.6,25.1z"/>
<path class="st0" d="M254.8,45.1c-1.3,2.7-4.8,6.1-9.8,6.1c-7.8,0-12.5-6.8-12.5-14.4c0-7.1,5-13.5,11.3-15.8v0.6
	c-2.5,2-5.2,5.9-5.2,12.6c0,7.9,4.5,12,10.1,12c2.7,0,4.9-0.7,6-1.4V45.1z M262.2,44.3c0,3.2,0.8,3.7,2.2,4c1.1,0.3,1.9,0.4,2.8,0.6
	v0.5l-11,1.9l-0.2-0.1V31.5c0-2.3-0.3-5.9-2.4-8.1c-1.7-1.8-3.7-2.7-6.8-2.7v-0.5c1.3-0.3,2.5-0.4,3.7-0.4c2.2,0,4.5,0.5,5.6,0.9
	V9.4c0-2.4-1.2-3.5-1.9-4.1c-0.6-0.5-1.2-0.9-1.9-1.2V3.6l9.9-3.6l0.1,0.1c-0.1,3-0.2,7.2-0.2,10.1V44.3z"/>
<path class="st0" d="M287.3,28.4c0-4.8-0.2-6-4.7-6.6v-0.6l10.7-1.1l0.1,0.1v19.6c0,5.4,1.4,7.3,6,7.3c2.4,0,3.9-0.5,5.5-1.5v0.3
	c-1.9,3-5,5.3-9.3,5.3c-6.1,0-8.4-3.7-8.4-9.4V28.4z M313.1,44.1c0,3.2,0.8,3.7,2.2,4c1.1,0.3,1.9,0.4,2.8,0.6v0.5l-11,1.9l-0.2-0.1
	V28.4c0-4.8-0.7-6-5.2-6.6v-0.6l11.2-1.1l0.1,0.1V44.1z"/>
<path class="st0" d="M372.6,43.5c0,4.7,0.9,6.1,4.8,6.6v0.6h-15.6v-0.6c4-0.5,4.7-1.8,4.7-6.6V29.2c0-2.4-1.2-3.5-1.9-4.1
	c-0.6-0.5-1.2-0.9-1.9-1.2v-0.4l9.9-3.7l0.1,0.1V43.5z M392,43.5c0,4.8,0.5,6.1,4.5,6.6v0.6h-15.5v-0.6c3.8-0.5,4.8-1.9,4.8-6.6
	V30.2c0-4-1-6.3-5.5-6.3c-2.1,0-3.8,0.5-5.5,1.2v-0.1c2.4-2.8,6.4-5,9.8-5c5.8,0,7.5,3.5,7.5,9V43.5z M405.3,30.2c0-4-1-6.3-5.5-6.3
	c-2.1,0-3.8,0.5-5.5,1.2v-0.1c2.4-2.8,6.4-5,9.8-5c5.8,0,7.5,3.5,7.5,9v14.6c0,4.8,0.6,6.1,4.7,6.6v0.6h-15.6v-0.6
	c3.8-0.5,4.8-1.9,4.8-6.6V30.2z"/>
<path class="st0" d="M448.3,47.1v0.3c-0.9,1.9-3.7,3.9-7.1,3.9c-4.8,0-7.3-3.2-7.3-6.8c0-3.6,1.8-5.7,2.4-5.9
	c1.4-0.6,7.1-2.6,11.2-3.7v0.6c-2.3,0.9-5.1,1.9-6.4,3.6c-0.8,1-1.2,2.5-1.2,4c0,3,1.5,5,4.9,5C446.2,47.9,447.8,47.4,448.3,47.1z
	 M438.9,24.1c1.8,0,3.3,1.5,3.3,3.3c0,1.9-1.5,3.4-3.3,3.4c-1.8,0-3.3-1.5-3.3-3.4C435.6,25.6,437.1,24.1,438.9,24.1z M440.9,22.4
	c1.3-1.1,5-2.5,7.1-2.5c5.1,0,8.1,2.5,8.1,8.2v16.5c0,2.5,0.9,3.4,2.9,3.4c0.7,0,1.8-0.3,2.4-0.6v0.5c-0.7,1.5-2.7,3.5-6.1,3.5
	c-3.5,0-5.4-2.3-5.4-6v-17c0-3.6-2.7-5.6-8.9-5.6V22.4z"/>
<path class="st0" d="M482,9.4c0-2.4-1.2-3.5-1.9-4.1c-0.6-0.5-1.2-0.9-1.9-1.2V3.6L488.3,0l0.1,0.1c-0.1,3-0.2,7.2-0.2,10.1v33.3
	c0,4.7,0.9,6.1,4.8,6.6v0.6h-15.6v-0.6c4-0.5,4.7-1.8,4.7-6.6V9.4z"/>
</svg>
