<svg enable-background="new 0 0 389.717 27.897" height="27.897" viewBox="0 0 389.717 27.897" width="389.717" xmlns="http://www.w3.org/2000/svg"><path d="m383.767 23.666c0 2.625-.351 3.332-2.55 3.604v.313h8.5v-.313c-2.07-.272-2.58-1.057-2.58-3.604v-18.14c0-1.567.08-3.879.109-5.485l-.07-.041-5.489 1.959v.238c.35.155.71.389 1.02.666.431.351 1.061.899 1.061 2.231v18.572m-33.111-8.737c0 1.021.82 1.842 1.8 1.842s1.8-.821 1.8-1.842c0-.978-.819-1.802-1.8-1.802-.98 0-1.8.824-1.8 1.802m5.09 11.127c-1.84 0-2.66-1.058-2.66-2.703 0-.782.2-1.604.631-2.153.699-.901 2.229-1.49 3.479-1.959v-.315c-2.229.627-5.36 1.725-6.11 2.039-.31.118-1.289 1.252-1.289 3.211s1.369 3.723 3.959 3.723c1.801 0 3.37-1.098 3.83-2.114v-.158c-.27.156-1.17.429-1.84.429m-2.23-13.752c3.37 0 4.859 1.098 4.859 3.057v9.246c0 2.037 1.061 3.291 2.94 3.291 1.84 0 2.939-1.057 3.33-1.881v-.272c-.35.194-.94.351-1.33.351-1.1 0-1.57-.47-1.57-1.84v-8.972c0-3.097-1.609-4.468-4.39-4.468-1.101 0-3.13.783-3.84 1.371v.117zm-26.41 11.362c0 2.548-.51 3.332-2.58 3.604v.313h8.5v-.313c-2.19-.272-2.55-.979-2.55-3.604v-7.952c0-2.979-.94-4.898-4.07-4.898-1.84 0-4.04 1.216-5.33 2.742v.078c.94-.351 1.88-.627 3.021-.627 2.47 0 3.01 1.254 3.01 3.409v7.248zm-7.2-7.952c0-2.979-.95-4.898-4.08-4.898-1.84 0-4.04 1.216-5.33 2.742v.078c.94-.351 1.88-.627 3.021-.627 2.47 0 3.02 1.254 3.02 3.409v7.248c0 2.548-.51 3.332-2.59 3.604v.313h8.42v-.313c-2.19-.272-2.46-.979-2.46-3.604v-7.952zm-10.58-4.899-.08-.039-5.37 1.998v.234c.351.157.71.393 1.021.666.43.354 1.06.903 1.06 2.235v7.756c0 2.625-.359 3.332-2.55 3.604v.313h8.5v-.313c-2.07-.272-2.58-1.057-2.58-3.604v-12.85zm-68.451.196-.079-.039-6.11.588v.313c2.43.313 2.819.94 2.819 3.565v12.343l.12.039 5.99-1.021v-.273c-.47-.077-.94-.155-1.53-.312-.779-.197-1.21-.47-1.21-2.195zm-14.029 11.715c0 3.097 1.26 5.095 4.59 5.095 2.35 0 4.03-1.255 5.05-2.861v-.157c-.9.549-1.68.823-3.02.823-2.5 0-3.25-1.019-3.25-3.957v-10.658l-.08-.039-5.83.588v.313c2.43.313 2.54.94 2.54 3.565zm-19.12-17.2c0-1.567.08-3.879.12-5.485l-.08-.041-5.4 1.959v.238c.351.155.7.389 1.01.666.44.351 1.061.899 1.061 2.231v6.192c-.62-.237-1.88-.511-3.05-.511-.67 0-1.34.078-2.04.234v.276c1.72 0 2.779.468 3.72 1.448 1.14 1.216 1.29 3.175 1.29 4.429v10.694l.12.039 6-1.018v-.275c-.471-.078-.94-.155-1.53-.313-.79-.196-1.22-.469-1.22-2.194v-18.569zm-4.03 18.886c-.63.351-1.8.744-3.29.744-3.02 0-5.49-2.233-5.49-6.543 0-3.646 1.45-5.761 2.82-6.858v-.312c-3.439 1.255-6.15 4.779-6.15 8.619 0 4.154 2.551 7.836 6.78 7.836 2.74 0 4.62-1.881 5.33-3.33zm-79.732-13.597-.078-.039-5.367 1.998v.234c.351.157.705.393 1.017.666.433.354 1.06.903 1.06 2.235v7.756c0 2.625-.354 3.332-2.547 3.604v.313h8.894v-.313c-1.998-.233-2.978-.86-2.978-3.604v-12.85zm5.133 4.623c1.136 0 2.037-.743 2.037-2.153 0-1.489-.783-2.47-2.548-2.47-1.565 0-3.095 1.527-3.604 3.175v.155c.745-1.41 1.723-1.842 2.35-1.842.118 0 .275.039.313.078-.195.198-.392.784-.392 1.293.001 1.059.785 1.764 1.844 1.764m-29.698-4.427-.079-.039-6.113.588v.313c2.432.313 2.821.94 2.821 3.565v12.343l.118.039 5.994-1.021v-.273c-.47-.077-.94-.155-1.528-.312-.783-.197-1.213-.47-1.213-2.195zm-14.028 11.715c0 3.097 1.254 5.095 4.585 5.095 2.351 0 4.035-1.255 5.056-2.861v-.157c-.901.549-1.687.823-3.019.823-2.507 0-3.252-1.019-3.252-3.957v-10.658l-.078-.039-5.838.588v.313c2.43.313 2.546.94 2.546 3.565zm-17.944-5.955c0-3.016-2.625-5.838-6.19-5.955v.312c1.92.16 2.586 2.431 2.743 4.899l-5.994.472v.272zm-7.365-5.877c-3.369.394-6.857 3.84-6.857 8.619 0 4.545 2.861 8.385 7.76 8.385 4.151 0 6.463-3.252 7.129-4.975l-.195-.158c-.902 1.254-2.547 2.508-5.447 2.508-3.839 0-5.916-3.407-5.916-7.403 0-3.489 1.332-6.271 3.527-6.662v-.314zm-29.346 12.772c0 2.625-.354 3.332-2.548 3.604v.313h8.502v-.313c-2.075-.272-2.586-1.057-2.586-3.604v-18.14c0-1.567.078-3.879.118-5.485l-.078-.041-5.483 1.959v.238c.352.155.705.389 1.018.666.432.351 1.059.899 1.059 2.231v18.572zm-21.822 3.605c-2.077-.116-2.979-.979-2.979-3.604v-10.97h4.193l.391-1.49h-4.584v-4.741c0-2.703.784-5.718 4.036-6.228v-.238c-3.918.354-7.405 2.824-7.405 7.447v3.485l-2.311 1.449v.315h2.311v10.969c0 2.625-.352 3.332-2.547 3.604v.313h8.895zm2.467-26.484c-.979 0-1.801.821-1.801 1.799 0 1.021.822 1.843 1.801 1.843.98 0 1.802-.822 1.802-1.843 0-.978-.822-1.799-1.802-1.799" fill="#231f20"/></svg>