<svg enable-background="new -0.55 -0.5 21.794 20" height="20" viewBox="-.55 -.5 21.794 20" width="21.794" xmlns="http://www.w3.org/2000/svg"><path d="m10.358 19.5h-.02c-.132 0-.259-.055-.349-.152l-7.035-7.586c-.114-.1-3.504-3.192-3.504-6.757 0-2.298 2.101-5.504 5.521-5.504 1.704 0 3.511.774 5.375 2.302 1.865-1.529 3.674-2.303 5.378-2.303 3.42 0 5.521 3.207 5.521 5.505 0 3.565-3.39 6.657-3.533 6.788l-7.004 7.555c-.092.097-.218.152-.35.152zm-5.386-19.047c-3.042 0-4.569 2.918-4.569 4.552 0 3.138 3.186 6.05 3.219 6.08l6.726 7.248 6.695-7.219c.062-.06 3.25-2.971 3.25-6.109 0-1.634-1.526-4.553-4.568-4.553-1.564 0-3.27.785-5.066 2.333-.179.153-.442.153-.621 0-1.798-1.548-3.502-2.332-5.066-2.332z" fill="#231f20"/></svg>