<?xml version="1.0" encoding="utf-8"?>
<!-- Generator: Adobe Illustrator 25.0.0, SVG Export Plug-In . SVG Version: 6.00 Build 0)  -->
<svg version="1.1" id="Layer_1" xmlns="http://www.w3.org/2000/svg" xmlns:xlink="http://www.w3.org/1999/xlink" x="0px" y="0px"
	 width="159.8px" height="159.8px" viewBox="0 0 159.8 159.8" style="enable-background:new 0 0 159.8 159.8;" xml:space="preserve"
	>
<style type="text/css">
	.st0{fill:#FFFFFF;}
</style>
<circle cx="80.1" cy="79.9" r="68"/>
<g id="Group_324">
	<g id="Path_117">
		<path class="st0" d="M50.6,123.2c-1.5-1-2.4-2.8-2.4-4.6l1.9,0.2c0,1.2,0.6,2.3,1.5,3c1.9,1.2,4.5,0.7,5.7-1.2
			c1.1-1.8,0.7-4.2-0.9-5.5c-0.8-0.6-1.8-0.8-2.8-0.7l-1,1.4l2.8,2l-1,1.4l-4.4-3.1l2.5-3.5c1.7-0.4,3.6,0,5,1
			c2.7,1.9,3.3,5.6,1.4,8.2S53.2,125.1,50.6,123.2L50.6,123.2z"/>
	</g>
	<g id="Path_118">
		<path class="st0" d="M43.2,116.6l-4.9-6l1.4-1.1l3.7,4.5l2.3-1.9l-3.6-4.4l1.4-1.1l3.6,4.4l2.4-2l-3.7-4.5l1.4-1.1l4.9,6
			L43.2,116.6z"/>
	</g>
	<g id="Path_119">
		<path class="st0" d="M36,103.1l1.5,3.1l-1.6,0.8l-3.8-8l1.6-0.8l1.5,3.1l8.7-4.1l0.9,1.8L36,103.1z"/>
	</g>
	<g id="Path_120">
		<path class="st0" d="M40.6,82.8l1.5-0.1l0.1,1.4h-1.5c0,1.5-0.5,3-1.5,4.1l-1.6-1c0.8-0.8,1.2-1.9,1.3-3l-3.3,0.2
			c-0.3,1.8-0.8,3.7-3,3.9c-1.7,0.1-3.2-1.2-3.6-3.4l-1.6,0.2l-0.1-1.4l1.6-0.1c0-1.3,0.5-2.5,1.3-3.5l1.6,1c-0.6,0.7-0.9,1.5-1,2.4
			l2.9-0.2c0.3-1.8,0.9-3.8,3.1-3.9C38.6,79.2,40.2,80.2,40.6,82.8z M37.2,81.3c-0.8,0.1-1.1,0.8-1.3,1.8l2.9-0.2
			C38.5,81.7,37.8,81.3,37.2,81.3L37.2,81.3z M33.4,84.7l-2.7,0.2c0.2,1,0.7,1.5,1.5,1.5C33,86.3,33.2,85.6,33.4,84.7L33.4,84.7z"/>
	</g>
	<g id="Path_121">
		<path class="st0" d="M37.6,75.6c1-0.6,1.7-1.6,1.9-2.8c0.3-1.1-0.3-2.3-1.4-2.6H38c-1.1-0.2-2.2,0.5-2.4,1.6c0,0.1,0,0.2,0,0.3
			c-0.2,0.9,0,1.9,0.5,2.6L35.4,76l-6.3-1.1l1.3-7.3l1.7,0.3l-1,5.4l3.2,0.6c-0.5-0.8-0.7-1.8-0.5-2.7c0.3-1.9,2.1-3.3,4-3
			c0.1,0,0.2,0,0.2,0c2.3,0.4,3.5,2.4,3,4.9c-0.2,1.6-1.1,3-2.5,3.9L37.6,75.6z"/>
	</g>
	<g id="Path_122">
		<path class="st0" d="M33.7,58.3c1.3-2.9,4.6-2.9,7.2-1.7s4.8,3.7,3.4,6.6c-1.3,2.9-4.7,2.9-7.3,1.7C34.4,63.7,32.3,61.2,33.7,58.3
			z M35.3,59.1c-0.8,1.7,0.7,3.1,2.7,4s4,1.1,4.8-0.6c0.8-1.7-0.7-3.1-2.7-4S36.1,57.4,35.3,59.1L35.3,59.1z"/>
	</g>
	<g id="Path_123">
		<path class="st0" d="M47.4,50.6c-0.8-0.7-0.8-2-0.1-2.8s2-0.8,2.8-0.1s0.8,2,0.1,2.8l0,0C49.4,51.3,48.1,51.3,47.4,50.6z"/>
	</g>
	<g id="Path_124">
		<path class="st0" d="M58.4,33c1.6-0.9,3.6-0.8,5.2,0.1l-1.1,1.6c-1-0.5-2.3-0.6-3.3,0c-2,1.1-2.7,3.6-1.6,5.6
			c1,1.8,3.3,2.6,5.3,1.7c0.9-0.5,1.6-1.2,2-2.1l-0.8-1.6l-3,1.5l-0.8-1.6l4.8-2.4l1.9,3.8c-0.5,1.7-1.7,3.2-3.3,4
			c-2.9,1.5-6.5,0.3-7.9-2.6C54.4,38.1,55.5,34.5,58.4,33L58.4,33z"/>
	</g>
	<g id="Path_125">
		<path class="st0" d="M67.7,29.6l7.7-1.5l0.3,1.7L70,30.9l0.6,2.9l5.6-1.1l0.3,1.7l-5.6,1.1l0.6,3.1l5.7-1.1l0.3,1.7l-7.7,1.5
			L67.7,29.6z"/>
	</g>
	<g id="Path_126">
		<path class="st0" d="M83,29.6l-3.4-0.2l0.1-1.8l8.9,0.4l-0.1,1.8l-3.4-0.2l-0.5,9.6l-2-0.1L83,29.6z"/>
	</g>
	<g id="Path_127">
		<path class="st0" d="M98.8,43.2l-0.6,1.4l-1.3-0.5l0.6-1.4c-1.4-0.7-2.4-1.8-2.9-3.2l1.6-1c0.4,1,1.1,1.9,2,2.5l1.3-3
			c-1.4-1.1-2.9-2.5-2-4.5c0.7-1.6,2.6-2.3,4.6-1.6l0.6-1.4L104,31l-0.6,1.5c1.1,0.6,2,1.6,2.5,2.8l-1.6,0.9c-0.3-0.8-0.9-1.5-1.6-2
			l-1.2,2.7c1.4,1.2,2.9,2.5,2,4.6C102.9,43.1,101.3,44,98.8,43.2z M101.6,40.8c0.3-0.7-0.2-1.3-0.9-2l-1.2,2.7
			C100.7,41.9,101.4,41.4,101.6,40.8L101.6,40.8z M100.5,36l1.1-2.4c-0.7-0.4-1.6-0.1-2,0.7C99.3,34.8,99.8,35.4,100.5,36L100.5,36z
			"/>
	</g>
	<g id="Path_128">
		<path class="st0" d="M106.5,43.9c0.1,1.2,0.6,2.3,1.6,3c0.8,0.8,2.2,0.8,3,0l0.1-0.1c0.7-0.9,0.6-2.2-0.3-2.9
			c-0.1-0.1-0.1-0.1-0.2-0.2c-0.7-0.6-1.6-0.9-2.6-0.8l-0.9-1.2l3.9-5l5.9,4.6l-1.1,1.4l-4.3-3.4l-2,2.6c1-0.1,1.9,0.2,2.6,0.8
			c1.6,1.2,1.9,3.4,0.7,4.9c0,0.1-0.1,0.1-0.2,0.2c-1.5,1.9-3.8,1.9-5.8,0.3c-1.3-0.9-2.1-2.4-2.2-4L106.5,43.9z"/>
	</g>
	<g id="Path_129">
		<path class="st0" d="M123.6,48.5c1.9,2.5,0.4,5.4-1.9,7.2s-5.5,2.5-7.5-0.1s-0.4-5.5,1.9-7.2S121.7,46,123.6,48.5z M122.2,49.6
			c-1.1-1.5-3.1-0.8-4.8,0.5s-2.9,3-1.7,4.5s3.1,0.8,4.8-0.5S123.3,51.1,122.2,49.6L122.2,49.6z"/>
	</g>
	<g id="Path_130">
		<path class="st0" d="M124,64.2c1-0.3,2.1,0.2,2.5,1.2c0.3,1-0.2,2.1-1.2,2.5c-1,0.3-2.1-0.2-2.5-1.2l0,0
			C122.4,65.7,123,64.6,124,64.2z"/>
	</g>
	<g id="Path_131">
		<path class="st0" d="M134.4,82.2c0,1.8-0.9,3.6-2.5,4.5L131,85c1-0.7,1.6-1.7,1.6-2.9c-0.1-2.3-1.9-4.1-4.2-4
			c-2.1,0.1-3.9,1.7-4,3.8c0,1,0.3,2,1,2.7h1.8l0.1-3.4h1.8l-0.1,5.4l-4.3-0.1c-1.3-1.2-2-3-2-4.7c0.1-3.3,2.8-5.8,6-5.8
			S134.4,79,134.4,82.2L134.4,82.2L134.4,82.2z"/>
	</g>
	<g id="Path_132">
		<path class="st0" d="M133,92.1l-2.2,7.5l-1.7-0.5l1.7-5.6l-2.8-0.8l-1.7,5.4l-1.7-0.5l1.7-5.5l-3-0.9l-1.7,5.6l-1.7-0.5l2.2-7.5
			L133,92.1z"/>
	</g>
	<g id="Path_133">
		<path class="st0" d="M125.8,105.5l1.8-3l1.5,0.9l-4.5,7.7l-1.5-0.9l1.8-3l-8.3-4.9l1-1.7L125.8,105.5z"/>
	</g>
	<g id="Path_134">
		<path class="st0" d="M106.4,113.2l-1-1.2l1.1-0.8l0.9,1.2c1.2-0.9,2.7-1.3,4.2-1.1l0.1,1.9c-1.1-0.2-2.2,0-3.2,0.6l2,2.6
			c1.7-0.7,3.5-1.4,4.9,0.4c1.1,1.4,0.8,3.3-0.8,4.8l1,1.2l-1.1,0.8l-1-1.3c-1.1,0.7-2.4,1-3.6,0.9v-1.9c0.9,0.1,1.8-0.1,2.5-0.5
			l-1.8-2.3c-1.7,0.7-3.6,1.4-5-0.4C104.6,116.8,104.5,114.9,106.4,113.2z M112,118l1.7,2.1c0.7-0.5,0.8-1.4,0.4-2.1
			C113.6,117.5,112.9,117.7,112,118L112,118z M107.1,116.8c0.5,0.6,1.3,0.5,2.2,0.1l-1.8-2.3C106.8,115.1,106.7,116.1,107.1,116.8
			L107.1,116.8z"/>
	</g>
	<g id="Path_135">
		<path class="st0" d="M102.2,119.6c-1.1-0.5-2.3-0.5-3.4,0c-1.1,0.3-1.7,1.5-1.4,2.6c0,0,0,0.1,0.1,0.1c0.4,1,1.6,1.5,2.7,1.1
			c0.1,0,0.2-0.1,0.2-0.1c0.9-0.4,1.5-1,1.9-1.9l1.5-0.2l2.6,5.8l-6.8,3l-0.7-1.6l5-2.2l-1.3-3c-0.4,0.9-1.1,1.6-2,1.9
			c-1.8,0.8-3.9,0.1-4.7-1.7c0-0.1-0.1-0.2-0.1-0.2c-1-2.2,0.1-4.3,2.4-5.3c1.4-0.7,3.1-0.8,4.6-0.1L102.2,119.6z"/>
	</g>
	<g id="Path_136">
		<path class="st0" d="M90,132.6c-3.2,0.5-5-2.2-5.4-5.1c-0.4-2.9,0.4-6,3.6-6.5s5,2.3,5.4,5.1S93.2,132,90,132.6z M89.8,130.8
			c1.8-0.3,2.2-2.3,1.8-4.5c-0.4-2.2-1.3-4-3.2-3.7s-2.2,2.3-1.8,4.5C87,129.3,87.9,131.1,89.8,130.8L89.8,130.8z"/>
	</g>
	<g id="Path_137">
		<path class="st0" d="M75,125.5c-0.2,1.1-1.2,1.8-2.2,1.6c-1.1-0.2-1.8-1.2-1.6-2.2c0.2-1.1,1.2-1.8,2.2-1.6l0,0
			C74.5,123.5,75.2,124.5,75,125.5z"/>
	</g>
</g>
</svg>
