<?xml version="1.0" encoding="utf-8"?>
<!-- Generator: Adobe Illustrator 26.5.0, SVG Export Plug-In . SVG Version: 6.00 Build 0)  -->
<svg version="1.1" id="Layer_1" xmlns="http://www.w3.org/2000/svg" xmlns:xlink="http://www.w3.org/1999/xlink" x="0px" y="0px"
	 width="320px" height="54.2px" viewBox="0 0 320 54.2" style="enable-background:new 0 0 320 54.2;" xml:space="preserve">
<style type="text/css">
	.st0{enable-background:new    ;}
</style>
<g id="Group_1014" transform="translate(-620 -287.205)">
	<g class="st0">
		<path d="M677.4,298.2c-0.4,0.5-0.6,1-0.7,1.1c-0.3,0-1.3,0.5-2,0.2c-0.9-0.6-2.8-1.4-4.2-1.7c-1-0.1-2-0.2-3-0.4l-0.4-0.8
			c0,0-1.6,0.4-2.1,0.4c-1.4,0-1.8-0.4-2.3-0.6c0.3,0.6-1.5,0.4-1.2-0.3c-1.3,0.2-1.2,0.1-1.3-0.1l-1.2-0.1
			c-0.1,0.1-0.5,0.1-1.1,0.2c0.1,0.5,0.1,0.1,0.1,0.7c-1.9-0.4-3.7,0.1-6.3,0c-0.4-0.8,0.1-0.4-0.6-0.8c0.1,0.9,0.2,0.4,0.1,1
			c-0.8,0.2-3.3,0.4-4.3,1.1c0.9,0.5,2.2,1.2,2.8,2.1c-0.2,0.4,0.1,1.4-0.1,1.8l-0.9,0.6c-0.5,1.2-0.6,2.6-1.2,3.9
			c-0.1,0.4-0.8,0.6-1,0.9c-0.4,0.9-0.1,2.4-0.5,3.3c-0.4,0.8-1.3,1.7-1.7,2.5c-0.4,0.6,0.1,2.5-0.4,3c-0.1,0.2-0.6,0.1-0.9,0.4
			c0.4,0.1,0.2,0,0.3,0.3c-0.1,0.6-2.2,5.1-2.3,5.1c-0.1-0.1-0.2-0.2-0.3-0.3c0.5,2.5-0.6,1.6-1.4,3.1c0.2,0.7,0.2,1.6,0.3,2.4
			c-0.1,0.6-1.2,0.4-1.4,0.9c0.1,0.5,0.3,1,0.6,1.6c-0.1,0.5-1,0.6-1.3,1.2c-0.1,0.4,0.4,0.6,0.4,0.6c0.1,0.2,0.2,0.5,0.1,0.6h-0.7
			c-0.1,0.4,0.6,0.8,0.6,0.9c-0.4,0.6-0.5-0.1-0.4,1.2c-0.7,0.3-0.4-0.1-0.6,0.6c0.6,0.3,0.4-0.1,0.4,0.6c-0.1,1.5-0.2,1.6,0.1,3.6
			c0,0.6,0.4,1.5,0.6,1.7c0.1,0,0.5,0.1,0.8,0.1v0.3c-0.4,0-1.1,0.3-1.3,0.1c-0.6-0.5-1.3,0.1-2-0.5c-0.6-0.6-1.1-1.4-1.7-2.1
			c-0.4-3-0.8-4.8,0.6-6.6c-0.5-0.4-0.3-0.1-0.7-0.9c0.6,0,0.9,0.1,1.1-0.9c-0.4-0.2-0.2-0.1-0.3-0.3l0.8-2.8
			c0.9-0.9,1.5-0.1,1.7-1.6c-0.3,0.1-0.6,0.2-0.9,0.4c0-0.2-0.1-0.4-0.1-0.6c1.5-1,2-4.2,2.7-6c0.5-1.4,2-4.4,2.5-5.8
			c0.4-1.2,0.7-2.4,1-3.6c0.5-1.8,1.2-3.4,1.8-5.1c0-0.2,0.3-2.1,0.6-2.9c0.4-1.3,1.4-2.3,2-3.5l-0.3-0.1c0-0.1,0.1-0.3,0.1-0.4
			c-0.1,0-0.2-0.1-0.4-0.2c-1.9,0.1-3.6,0.8-5.4,1.7c-0.4-0.9,0.1-0.4-0.6-0.9c-0.3,0.6-1.7,0.8-2.4,1.1l-0.7-0.9
			c-0.9,2.1-10.9,2-14.6,1.6c-1.6-1.4-1.7-4.2-2.2-6.1c0.2-0.2,0.1-0.1,0.5-0.1l0.1,0.7c2,0.3,3.3,1.1,4.8,1.7
			c2.5,0,4.8,0.1,7.3,0.1c2.5-0.5,6.4-1.1,8.9-1c1.7-0.1,3.7-0.3,4.7-0.3c1.4-0.6,3-1.1,5.1-0.5c0.6-0.9,2-0.6,2.8-0.7
			c0.3-0.1,3.4-0.7,4.5-0.4c0.3,0.1,0.4,0.7,0.9,0.6c0.6-0.1,1.6-0.8,2.4-0.5l2.3-0.1c0.1,0.1,0.1,0.2,0.3,0.3
			c0.1,0.1,0.1,0.2,0.1,0.3c1.4-0.7,6.3,1.1,8,1.6c1.6,0.4,2.5,0.1,3.9,0.9C677.1,297.1,677.2,297.5,677.4,298.2z M622.1,298.3
			c0-0.1,0-0.4-0.1-0.4l-0.2-0.1c0.1,0.1,0,0.4,0,0.5H622.1z M634.8,334.6c-0.4-0.2-0.1-0.1-0.6-0.4
			C634.5,334.5,634.3,334.4,634.8,334.6z M636.4,331.5c0.2-0.3,0.1-0.1,0.1-0.6h-0.5c0.4,0.6,0.2,0.6,0.4,0.9
			C636.5,331.7,636.5,331.6,636.4,331.5z M637.6,324.9c0.2-0.6,0.1-0.4,0.3-0.9h-0.5c0,0.3-0.1,0.6-0.1,0.9H637.6z M637.5,329.1
			c0.5,0.2,0.4,0.2,0.7,0H637.5z M641.3,298.2c-0.1-0.1-0.1-0.3-0.1-0.6l-0.3-0.1c0,0.3,0.1,0.4,0.1,0.6H641.3z M643.4,297.8
			c-0.1-0.1-0.1-0.3-0.1-0.4l-0.5-0.1c0,0.2,0,0.4,0.1,0.5H643.4z M644.2,296.9l-0.5-0.1c0.1,0.3-0.1,0.6-0.1,0.8l0.5,0.1
			c-0.1,0-0.1-0.1-0.1-0.2C644.3,297.2,644.1,297.4,644.2,296.9z M650.9,296.9c0-0.1-0.1-0.1,0-0.3c-0.3-0.1-0.6-0.1-0.8-0.3
			c0,0.1,0,0.4,0.1,0.5L650.9,296.9z M652.6,296.6c0.3-0.3,1.7-0.3,2.6-0.2c-0.1-0.1-0.1-0.3-0.1-0.4h-0.9c-0.3,0.1-0.3,0-0.9-0.1
			c-0.4,0.2-0.6,0.2-1.2,0.1l0.1,0.6L652.6,296.6L652.6,296.6z M653.2,297.2l0.4,0.1v0.2C653.2,297.3,653.4,297.4,653.2,297.2z
			 M657.6,296.3c-0.1-0.1-0.1-0.3-0.2-0.4h-0.5c0.1,0.1,0.1,0.3,0.2,0.4H657.6z M666.7,296.1c-0.1-0.2,0-0.4-0.1-0.5l-0.8-0.1
			c0.1,0.1,0.1,0.4,0.1,0.6L666.7,296.1L666.7,296.1z M669.3,296.5c-0.1-0.2-0.1-0.4-0.1-0.6h-0.5c0.1,0.1,0,0.4,0.1,0.6H669.3z"/>
		<path d="M668.1,341.1l-1.2-1l-1.4-0.4l0.1-0.5l-0.7-0.9l-0.6-0.8l-0.5-0.9l-0.7-0.9l0.3-0.9l-0.6-0.7l-0.1-1l0.6-0.6l-0.6-1
			l0.1-0.9l0.1-0.6l0.4-1.1l0.1-0.9l0.5-0.9l0.2-0.3l-0.1-1.4l0.4-0.6l0.8-0.9v-0.9l0.6-1.6h-0.4c-1.7,3.7-6,6.6-7.9,9.4
			c-0.6-0.1-0.2-0.1-0.9,0c0.1,0.9,0.4,0.6-0.3,1.2c-0.3,0.4-0.4-0.3-0.5,0.4c0.1,1.4-3.5,4.7-4,7c-0.4-0.1-0.3-0.1-0.5-0.2
			c-2-0.4-2.4-1.1-3.6-2.7c0.2-0.4,0.1-1.9,0.1-2.8h0.7c-0.3-1.2-0.4-2-0.1-2.4h0.5l-0.3-1.3c0.1-0.3,0.6-0.9,0.9-1
			c0.4-0.6-0.4-1.4-0.2-1.7h0.7c0.1,0,0.1-1.2-0.2-1.6c0.6-1.1,1.3-1.6,1.6-2.5c-0.3-0.3-0.1-0.2-0.2-0.9h0.7
			c-0.2-1.1,1.2-1.5,1.1-3.3h0.7l-0.3-1.2h0.6v-0.2c-0.2-0.2-0.1-0.1-0.4-0.5c0.1,0,3-6.4,3.1-7.6c0.4,0.2,0.4,0.6,0.6,0.2
			c0.1-0.3,0.2-0.6-0.2-0.9c0.6-0.4,0.7,0.2,0.8-0.7c-0.6-0.1-0.2,0.2-0.6-0.5c1.7-1.1,1.4-3,2.2-4.8c0.3-0.4,0.6-0.6,0.9-0.9
			c0.6-1.7,0.7-2.5,1.4-4.3c0.2-0.3,0.6-1.9,1.1-2.2c0.7-1.8,1.7-4,2.5-6.1l1.5,0.4c0.1,0.2,0.1,0.5,0.2,0.6
			c0.5,0.1,0.9,0.2,1.4,0.3c0.1,0.1,0.1,0.1,0.2,0.2c0.3,0.9,0.2,0.7,0.4,1.6c-0.4,0.1-0.4,1.1-0.6,1.3c-0.8,0.8-0.9,1.3-1.7,2
			c0.1,0.4,0.3,1.1-0.8,2.3c-0.6,0.1-1,0.4-1.5,0.4l0.3,1.4c-0.1,0.6-0.9,0.7-1.4,1.2c0.4,0.6-2.5,7.7-3.2,8.6
			c0.3,0.4,0.8,0.1,0.4,0.4c-0.1,0.3-0.1,0.4-0.1,0.7c-0.4-0.3-0.2-0.3-0.8-0.4c-0.3,1.5-1.5,2.7-1.7,4.4h0.4
			c0.1-0.2,0.2-0.4,0.4-0.5c0.1,0.1,0.1,0.3,0.1,0.5c-0.8,0.5-1.1,0.8-2,1.3c0.4,0.9,0.4,0.5,0.6,1.4c-0.4-0.2-0.4-0.6-0.5-0.2h-0.2
			c0.3,0.4,0.3,0.1,0.5,0.6c-0.7-0.1-0.6-0.5-0.8,0.2c0.5,0.1,0.5,0.1,0.8,0.3c-0.4,0.3-0.4,0.3-0.6,0.9c-0.4-0.3-0.2-0.3-0.7-0.5
			c0,0.1,0,0.3,0.1,0.5c0.4,0.1,0.2,0,0.3,0.2c-0.1,1.2-1.1,1.2-1.7,2c0.4,0.4,0.3,0.2,0.7,0.8c-0.9,0.7-0.6,1.7-0.8,2.7
			c-0.1-0.1-0.1-0.1-0.3-0.1c-0.3-0.4-0.1,0.4-0.1,0.4c0.2,0.4,0.1,0.1,0.1,0.7c-0.5,0.1-0.6,0.1-0.8,0.2c0.3,0.4,0.6,0.1,0.3,0.4
			l-0.9,2.3c-0.6-0.1-0.3-0.1-0.6,0c0.6,0.3,0.1-0.1,0.5,0.5c-0.8,0.9-1.4,3.2-1.5,4.6h0.4c0.7-1.9,3.8-4.8,5.3-6.2
			c0.6-1.1,1.4-2,2.1-3c0.2-0.1,0.4-0.2,0.6-0.3c0.3-0.4,0.1-1,0.4-1.3c0.4-0.5,1.2-0.6,1.6-1c0.4-0.2,0.1-1.1,0.4-1.4
			c1-1,4-3,4.3-4.4c-0.4-0.3-0.3-0.1-0.6-0.7c0.1-0.1,0.1-0.1,0.1-0.1c1.4,0.2,2.8-0.3,4.3,0.9c-0.1,0.6,0.6,1.2,0.4,1.9
			c-0.6,1.9-1.8,3.7-2.6,5.6c-0.3,0.6-0.6,2.1-0.1,2.8l-0.9,0.6c-0.1,0.5,0.4,0.7,0.3,1.4c-0.4,1.4-2.1,5.1-1.2,8.1
			c0.3,1.6,1.2,2.8,2.4,3.7h-0.2L668.1,341.1z M650.7,334.9c-0.1-0.1-0.1-0.3-0.2-0.4h-0.4c0,0.1,0,0.3,0.1,0.4H650.7z M657.2,309.6
			c-0.1-0.2-0.1-0.3-0.1-0.5c0.2,0.3,0.1,0.1,0.3,0.5H657.2z M659,314.5c0-0.1-0.1-0.4-0.1-0.4c0.2,0.2,0.1,0.1,0.4,0.4H659z"/>
		<path d="M695.6,330.4c0.2,0,0.4,0.1,0.4,0.2c-0.4,0.6-1.1,1.2-1.7,1.7H694c-0.4,0-2.2,1.2-2.8,1.8v0.3c0,0.4-0.6,1.1-1.1,1.1
			c-0.4,0-0.4-0.3-0.6-0.3c-1.2,0-0.2,1.5-1.7,1.5h-0.3c-0.4,0.1-1.1,1-1.2,1.4h-0.5c-1.1,0-1.2,0.9-2.2,1.1h-0.8
			c-0.2,0.2-0.5,0.3-0.9,0.3c-1.5,0-3.5-1.1-3.9-1.8c0,0.2-0.1,0.2-0.3,0.2c0-0.1-3-2.1-3-4.1c0-0.3,0-0.4,0.1-0.5h0.4l0.1-0.7H675
			c-1.3,0-0.8-0.8-1.7-0.8c0-0.6,0.5-0.9,0.6-1.3c0.3,0.1,0.4,0.2,0.4,0.4c0,0.2-0.1,0.3-0.2,0.4c0.7-0.2,1.2-0.9,1.2-1.9h0.4V329
			c-0.2-0.1-0.2-0.2-0.2-0.4c0-0.4,0.6-0.9,0.6-1.6c0-0.1,0-0.4-0.1-0.4c-0.6,0-0.3,1.2-1.1,1.2c0,0-0.1-0.1-0.2-0.1
			c0.1,0.1,0.2,0.4,0.2,0.9c0,0.6-0.5,0.6-0.5,0.9c0,0.2,0.1,0.2,0.2,0.2c-0.2,0.3-0.4,0.4-0.4,0.4c-0.2,0-0.4-0.4-0.4-1.1
			c0-1.5,1-1.7,1-2.4c-0.1-0.3-0.1-0.5-0.1-0.7c0-0.9,0.4-1.2,1-2.2c0.2,0.1,0.3,0.2,0.3,0.4c0,0.4-0.6,1.2-0.7,1.8
			c0.3-0.1,0.4-0.5,0.7-0.6l0.1-0.5c0.1-0.4,0.4-0.4,0.5-0.8c0-0.2-0.4-0.4-0.4-0.7c0,0.1,2.2-2.2,2.4-2.9c-0.1,0-0.1-0.1-0.1-0.1
			c0-0.1,0.3-0.4,0.5-0.4h0.4l0.1-0.7c0.3-0.8,1.2-1.3,1.7-1.3h0.2c0.9-0.3,1.6-0.6,2.2-1.2v-0.2c0.9-0.4,1.9-0.8,3-0.8
			c0.5,0,3.8,1.2,3.8,2.4c0,0.5-0.6,0.5-0.6,0.9c0,0.4,1.1,0.4,1.1,1.2c0,0.2-0.1,0.3-0.4,0.4c0.1,0.2,0.2,0.4,0.4,0.5
			c0,0.1-0.1,0.1-0.1,0.1c-0.1,0-0.2-0.1-0.4-0.1c0,0.6-0.3,0.7-0.4,1.1c0,0.2,0.1,0.5,0.1,0.6c0,0.3-0.2,0.4-0.8,0.4h-0.2
			c0,0.2,0.1,0.3,0.1,0.5c0,0-3.3,3.3-4.2,3.3h-0.4c-0.4,0-0.6-0.2-0.9-0.4c-0.8,0-0.1,0.9-1.4,0.9c-0.4,0-0.7-0.1-0.7-0.3
			c0-0.1,0-0.1,0.1-0.2c-1.1-0.1-2.4-0.8-3.3-0.8c-0.1,0-0.2,0-0.2,0.2c0,0.1,0.1,0.4,0.1,0.4c0,0.6-0.6,0.2-0.6,0.6
			c0,0.4,0.1,0.9,0.1,1.3c0,1.6-0.7,3.3-0.7,5.1c0,0.9,0.3,2.2,1.4,2.4h4.9c0.5-0.4,1.3-0.6,2.2-0.6c2-0.4,4-2,5.7-2.5
			c2.1-0.3,0.8-1.1,4.1-2.8L695.6,330.4L695.6,330.4z M679.5,323.9c-0.1,0.2,1.6,0.4,2.1,0.2c5.5-1.3,5.5-3.3,5.8-4.2l0.2-1
			c-0.4-0.4-0.9-0.9-1.5-0.9c-0.3,0-0.6,0.1-0.9,0.2h-0.7c0-0.1-0.1-0.2-0.2-0.2c-0.2,0-0.6,0.2-0.6,0.5c0,0.4,0.5,0.4,0.5,0.8
			c-0.2,0.2-0.7,0.1-0.9,0.5h-0.4c-0.5,0-0.7,0.4-1.2,0.6c-0.6,0.4-1.2,0.8-1.7,1.4c0.1-0.1,0.1-0.1,0.2-0.1c0.1,0,0.2,0.1,0.1,0.2
			L679.5,323.9z M680.8,321.8c0-0.4,0.7-1.3,1.2-1.3c0.1,0,0.2,0,0.2,0.1c-0.2,0.5-0.7,0.5-0.9,1.2
			C681.1,321.8,680.9,321.8,680.8,321.8C680.8,321.8,680.8,321.8,680.8,321.8z"/>
		<path d="M714,336.7c0.2-1.9,0.4-4,0.6-5.9h0.8c-0.4-1.7,1.1-1.6,1.6-3.2c0.4-0.4,0-0.4-0.2-0.9c0.2-0.1,2.8-5.5,3-5.8
			c-2.1,0-5.6,0.4-7.1,0c-0.4-0.8-0.5-0.1-0.5-1.5c-0.4-0.6-0.1-0.7,0-1.7c3.5,0,6.6-0.9,9.8-1.2c1.2-1.9,2.5-5.3,3.5-7.4
			c0.4-0.8,1.3-2.2,0.8-2.9c0.9-1.2,3-5.2,3.3-6.9h-0.6c-0.7,0.6-1.7,0.1-2.7,0.6c-0.1,0.3-0.2,0.5-0.3,0.9
			c-0.1-0.1-0.1-0.1-0.3-0.4c-1.6-0.3-5.3,2.1-5.9,1.8c-1.7-0.4-2.5-1.1-2.5-3.5c-0.3-0.4-0.4-1.2-0.8-1.9h1.1v-1.2
			c0.9,0.1,1,0.6,1.6,0.9c2.7-0.4,5.3-0.8,7.9-1.2c0.1,0.1,7.1-1.2,9.2-1.7c6.8-1.8,20.6-1.2,25.1,0.9c0.6,0.2,1.1-0.4,1.4-0.3
			c1.7,0.3,6.6,1.7,7.3,3.7c0.4,0.4,0.4,1.8,0.3,1.9c-0.3,0.2-0.1,0.1-0.5,0.3c-1-1.6-2.5-2.5-4.4-3l-1.1-0.5l-0.8-0.2l-1.2,0.1
			h-0.9l-0.5-0.6l-1.2,0.1l-1.3-0.4l-1.4,0.1l-0.3-0.1l-1.4-0.5l-0.4,0.6l-1.2-0.3l-1.4-0.1c-5.8-0.1-12.4,0.8-17.4,1.9v0.6h0.4
			c0.6,0.9-0.1,0.9,0,1.8l-0.5,1.2v0.3l-1.1,0.9l-0.2,0.6l-0.9,1.2v0.9l-0.7,1.1l-1.2,0.9l-0.1,0.6l0.1,1.2l-0.9,0.2l-0.4,1.4
			l-0.6,0.5v1l-0.4,0.6l-0.4,1.3l-0.8,2.2h0.8c1.4-0.8,5.6-1.2,7.2-0.4c0.9-0.7,3-1.2,4.8-1.2c1,0,2,0.1,2.8,0.4
			c1.7,0.6,3.5-0.9,5.1-0.9c0.6,0,1.2,0.3,1.7,1.2H745c-1.2,0.8-1.7-0.1-3.3,0.2c-2.2,0.6-2.6,0.9-3.8,0.9l-1.9,0.2
			c0.6,0.4,0.1-0.1,0.5,0.6c-0.4,0.4-0.4,0.5-1.1,0.8c-0.4,0.4-1.4,0.4-1.9,0c1-0.1,0.7,0.1,1.1-0.5h-1.1c-0.3,0.2-0.1,0.1-0.5,0.2
			v0.6c0.4,0.1,0.2,0.1,0.5,0.4c-0.8-0.1-0.7-0.3-1.1,0c-0.5,0.7-1.7,0.4-3.1,0.5c-1.9,0.1-5.5,0.4-6.3,1.2
			c-0.7,0.6-0.9,2.1-1.1,3.3h0.3v-0.2c0.4-0.4,0.4-0.5,0.6-1.4h1.1v0.2c-1.1,0.9-1.1,4-2.2,4.8c-1.2,0.9-2-0.5-3,1.7
			c0.4,0.3,0.8,1,1.1,1.8c-2.8,1.9-0.1,6.3-3,9.1C715.8,338.6,714.9,337.7,714,336.7z M720,329c-0.1,0.5-0.2,0.6-0.3,0.6
			c-0.1-0.1-0.3-0.4-0.2-0.6H720z M719.5,328.8l0.2-1.2c0.2,0.3,0.1,0.6,0.3,1.2L719.5,328.8z M720.8,328.4
			c-0.1,0.3-0.3,0.4-0.4,0.3c-0.1,0-0.1-0.9-0.1-1L720.8,328.4z M720.6,326.7h0.5v-0.5h-0.5V326.7z M721.9,325.5v-1.2
			c-0.1-0.2,0.1-0.1-0.2-0.4c-0.1,0.4-0.2,0.6-0.3,1.6L721.9,325.5L721.9,325.5z M723.4,314h0.6v-0.6h-0.6V314z M733.8,318.8
			c0.6,0.1,0.5,0.1,0.8,0.3C734,319,734.1,319,733.8,318.8z M734.6,316.8h0.6v-0.5h-0.6V316.8z M734.6,318.6
			c0.6,0.1,0.5,0.1,0.8,0.2C734.9,318.7,734.9,318.8,734.6,318.6z M735.4,296.2h0.6v-0.3l-0.6-0.2V296.2z M735.6,297.7
			c0.6,0.1,0.5,0.1,0.8,0.4C735.9,297.9,735.9,297.9,735.6,297.7z M737.8,317.5c0.6,0.1,0.5,0.1,0.8,0.2
			C738.1,317.6,738.1,317.7,737.8,317.5z M738.9,295.9c0.9,0,1.4-0.1,1.9-0.5h-1.9V295.9z M740,316.8c0.6,0.1,0.5,0.1,0.8,0.4h-0.2
			c-0.3,0.2-0.1,0.1-0.6,0.3V316.8z M744,316.3c-1.2,0-2.2,0-2.8-0.4l2.8,0.1V316.3z M746.5,294.6h-1.6c0,0.8-0.4,0.6,0.8,0.9
			C746.1,294.9,746.2,295.2,746.5,294.6z M744.9,315.8c0.2,0,1.9-0.4,1.9-0.4c0.1,0,0,0.5-0.6,0.9
			C745.7,316.2,745.2,316,744.9,315.8z M749.7,295.1l2.8-0.2l-1.9-0.4h-0.8L749.7,295.1L749.7,295.1z M750.5,314.6
			c-0.4-0.1-0.2-0.1-0.5-0.4h0.5V314.6z"/>
		<path d="M755.1,316.1L755.1,316.1c0,0.2-0.1,0.2-0.2,0.2c0,0.1,0,0.2,0.1,0.3c0,0-0.4,1.5-0.8,1.5c0,0.4,0.7,0.6,0.6,0.8
			c-0.3,0.4-1.2,0.4-1.2,0.9l0.1,0.3c0,1.1-1.7,3-1.7,3c0,0.1,0,0.4,0.1,0.6c-0.6,0.4-1.2,3.1-1.2,3.7c-0.1,0.5-0.5,0.9-0.9,1.3
			l0.1,0.5c0,0,0.1,0.1,0.1,0.2c-0.2,0.2-0.2,0.4-0.2,0.6v0.4c0,0.2-0.1,0.4-0.4,0.6c-0.4,0-0.6,3.5-1.6,3.7v0.2
			c0,0.4-0.2,0.6-0.6,0.6c0.2,0.4,0.6-0.1,0.6,0.7c0,0.6-0.2,1.3-0.2,1.7l0.1,0.1c0,0.2-0.2,0.5-0.4,0.5v0.1c0,0.9-2.8,1.8-3.3,1.8
			c-0.6-0.1-1.3-0.9-1.3-0.9c0-0.3,0.9-0.5,0.9-0.7l-0.3-1c0-0.3,0.9-0.7,1.2-1.1l-0.1-0.5c0.1-0.4,0.2-0.6,0.7-0.6
			c0-0.2-0.2-1.1-0.2-1.7c0.1,0,0.1-0.2,0.1-0.4v-0.7c0-0.9,0.5-0.4,0.5-1l-0.1-0.4c-0.1-0.1-0.1-0.1-0.1-0.2c0-0.5,0.9-1.1,0.9-1.4
			v-0.2c0-0.6,0.6-1.7,0.6-1.9v-0.1c0.1-0.4,0.5-0.8,0.5-1v-0.1c0-1.3,1-1.9,1-2.2v-0.4c0-0.1,0-0.3,0.1-0.3
			c0.2,0.3,1.7-4.3,2.1-4.3c0.1,0,0.1-0.1,0.1-0.2V319c0-0.6,2.8-8.1,3.3-8.5c0.8-1,1.9-3.3,1.9-3.6l-0.1-0.3c0-0.4,0.3-0.6,0.6-0.8
			v-0.3c0-1,0.7-1.4,0.7-2.5v-0.3c0.1-0.6,1.1-2.8,1.7-3.2c-0.1-0.2-0.1-0.3-0.1-0.4c0-0.2,0.1-0.3,0.1-0.5c0.4-0.4,2.3-4.8,2.3-5
			c0-0.1-0.4-0.1-0.4-0.1h-0.6c-0.3,0.8-0.6,1.7-1.1,2.3c-0.2-0.2-0.3-0.6-0.2-1c0.4-1.3,1.2-2.9,1.7-2.9c-0.1-0.1-0.1-0.4-0.1-0.4
			c0-0.2,0.5-0.4,0.5-1.5c0-0.1,0-0.4-0.1-0.6c-0.1,0.2-0.2,0.2-0.4,0.2c-0.1,0,0.3-0.6,0.3-0.6c0-0.1,0.4-0.6,0.4-0.6
			c0-0.4,0.7-0.4,0.7-0.5c0,0,0-0.1,0.2-0.1l-0.1-0.1c0-0.1,0.1-0.1,0.3-0.1c0-0.1,0.1-0.1,0.4-0.1c0.4-0.1,0.5-0.1,1.4,0.6l0.2,0.1
			c0.7,0.4,0.7,1.1,0.7,1.6c0,0.4-0.4,0.6-0.4,1.2c0,0.4-0.1,0.9-0.1,1.5v0.2c0.1,0.2,0.1,0.4,0.1,0.5c0,0.4-0.9,2.1-1.6,2.6
			c0.2,0.2,0.2,0.4,0.2,0.4v0.6c0,0.5-0.4,0.7-0.6,1.1c-1.1,0.5-0.4,2.2-1.3,2.9c-0.5,0.1-0.9,2.8-1.9,4.3v0.4
			c0,0.9-1.6,1.1-1.6,1.3c0,0.2,0.5,0.9,0.5,1.3c0,0.3-1.6,2.6-1.6,3.7C756.4,313.7,756.4,314.6,755.1,316.1z M756.7,301h0.2
			c0.9,0-0.1-1.8,0.4-1.9c0.4-0.2,0.4-1.6,0.6-1.6c0.2,0,0.5,0.4,0.5,0.7c0,0.2-0.6,0.1-0.6,0.6v0.2c0,1.1-1.3,4.1-1.5,5
			C755.7,304,756.2,302.4,756.7,301z M758.7,296.4L758.7,296.4c-0.2,0.1-0.3-0.1-0.6-0.1c0.1-0.2,0.2-0.2,0.2-0.5
			c0.2,0.1,0.4,0.3,0.6,0.3C758.8,296.2,758.7,296.2,758.7,296.4z"/>
		<path d="M779,330.4c0.2,0,0.4,0.1,0.4,0.2c-0.4,0.6-1.1,1.2-1.7,1.7h-0.2c-0.4,0-2.2,1.2-2.8,1.8v0.3c0,0.4-0.6,1.1-1.1,1.1
			c-0.4,0-0.4-0.3-0.6-0.3c-1.2,0-0.2,1.5-1.7,1.5h-0.3c-0.4,0.1-1.1,1-1.2,1.4h-0.5c-1.1,0-1.2,0.9-2.2,1.1h-0.8
			c-0.2,0.2-0.5,0.3-0.9,0.3c-1.5,0-3.5-1.1-3.9-1.8c0,0.2-0.1,0.2-0.3,0.2c0-0.1-3-2.1-3-4.1c0-0.3,0-0.4,0.1-0.5h0.4l0.1-0.7h-0.3
			c-1.3,0-0.8-0.8-1.7-0.8c0-0.6,0.5-0.9,0.6-1.3c0.3,0.1,0.4,0.2,0.4,0.4c0,0.2-0.1,0.3-0.2,0.4c0.7-0.2,1.2-0.9,1.2-1.9h0.4V329
			c-0.2-0.1-0.2-0.2-0.2-0.4c0-0.4,0.6-0.9,0.6-1.6c0-0.1,0-0.4-0.1-0.4c-0.6,0-0.3,1.2-1.1,1.2c0,0-0.1-0.1-0.2-0.1
			c0.1,0.1,0.2,0.4,0.2,0.9c0,0.6-0.5,0.6-0.5,0.9c0,0.2,0.1,0.2,0.2,0.2c-0.2,0.3-0.4,0.4-0.4,0.4c-0.2,0-0.4-0.4-0.4-1.1
			c0-1.5,1-1.7,1-2.4c-0.1-0.3-0.1-0.5-0.1-0.7c0-0.9,0.4-1.2,1-2.2c0.2,0.1,0.3,0.2,0.3,0.4c0,0.4-0.6,1.2-0.7,1.8
			c0.3-0.1,0.4-0.5,0.7-0.6l0.1-0.5c0.1-0.4,0.4-0.4,0.5-0.8c0-0.2-0.4-0.4-0.4-0.7c0,0.1,2.2-2.2,2.4-2.9c-0.1,0-0.1-0.1-0.1-0.1
			c0-0.1,0.3-0.4,0.5-0.4h0.4l0.1-0.7c0.3-0.8,1.2-1.3,1.7-1.3h0.2c0.9-0.3,1.6-0.6,2.2-1.2v-0.2c0.9-0.4,1.9-0.8,3-0.8
			c0.5,0,3.8,1.2,3.8,2.4c0,0.5-0.6,0.5-0.6,0.9c0,0.4,1.1,0.4,1.1,1.2c0,0.2-0.1,0.3-0.4,0.4c0.1,0.2,0.2,0.4,0.4,0.5
			c0,0.1-0.1,0.1-0.1,0.1c-0.1,0-0.2-0.1-0.4-0.1c0,0.6-0.3,0.7-0.4,1.1c0,0.2,0.1,0.5,0.1,0.6c0,0.3-0.2,0.4-0.8,0.4h-0.2
			c0,0.2,0.1,0.3,0.1,0.5c0,0-3.3,3.3-4.2,3.3h-0.4c-0.4,0-0.6-0.2-0.9-0.4c-0.8,0-0.1,0.9-1.4,0.9c-0.4,0-0.7-0.1-0.7-0.3
			c0-0.1,0-0.1,0.1-0.2c-1.1-0.1-2.4-0.8-3.3-0.8c-0.1,0-0.2,0-0.2,0.2c0,0.1,0.1,0.4,0.1,0.4c0,0.6-0.6,0.2-0.6,0.6
			c0,0.4,0.1,0.9,0.1,1.3c0,1.6-0.7,3.3-0.7,5.1c0,0.9,0.3,2.2,1.4,2.4h4.9c0.5-0.4,1.3-0.6,2.2-0.6c2-0.4,4-2,5.7-2.5
			c2.1-0.3,0.8-1.1,4.1-2.8L779,330.4L779,330.4z M762.9,323.9c-0.1,0.2,1.6,0.4,2.1,0.2c5.5-1.3,5.5-3.3,5.8-4.2l0.2-1
			c-0.4-0.4-0.9-0.9-1.5-0.9c-0.3,0-0.6,0.1-0.9,0.2h-0.7c0-0.1-0.1-0.2-0.2-0.2c-0.2,0-0.6,0.2-0.6,0.5c0,0.4,0.5,0.4,0.5,0.8
			c-0.2,0.2-0.7,0.1-0.9,0.5h-0.4c-0.5,0-0.7,0.4-1.2,0.6c-0.6,0.4-1.2,0.8-1.7,1.4c0.1-0.1,0.1-0.1,0.2-0.1c0.1,0,0.2,0.1,0.1,0.2
			L762.9,323.9z M764.2,321.8c0-0.4,0.7-1.3,1.2-1.3c0.1,0,0.2,0,0.2,0.1c-0.2,0.5-0.7,0.5-0.9,1.2
			C764.5,321.8,764.3,321.8,764.2,321.8C764.2,321.8,764.2,321.8,764.2,321.8z"/>
		<path d="M796.3,339.3c0.7,0.7,0.6,0.9,1.7,1.4c0.4,0.1,0.9,0.3,1.3,0.4c-0.6,0.2-1.3,0.4-1.7,0.2c-0.6-0.2-1.8-0.9-1.8-1l-0.8-0.7
			c-0.5-0.6-1.2-1.6-1.4-3l0.2,0.1c-0.2-1.7-0.8-0.9-0.8-3.7c0-0.9,0.1-1.9,0.1-2.3v-0.4c0-0.4,0.4-0.7,0.4-1.2v-0.9
			c0-0.4,0-1.7,0.5-2.1v-0.5c-1.2,0.4-1.2,1.6-1.8,2.2v0.2l-0.2,0.3c0,0.2,0.2,0.2,0.2,0.8H792c-0.1,0.1-0.2,0.2-0.6,0.2h-0.3v0.7
			c0,0.4-0.1,0.6-0.2,0.8c-0.2-0.1-0.4-0.2-0.4-0.2c-0.2,0-0.4,0.1-0.6,0.1c-0.1,0-0.2,0-0.3-0.1c0,0.3,0.1,0.5,0.3,0.5h1.2
			c-0.4,0.4-0.6,0.9-1.3,1c0.1,0.3,0.2,0.4,0.3,0.4c0.2,0,0.4-0.4,0.8-0.4h0.2c-0.6,0.9-0.8,2.4-2.1,2.6h-0.5c0,0.7-1,0.4-1,1.1v0.4
			c0,1.2-3.3,2.5-4.6,3l-0.9-0.1c-0.1,0-0.2,0.1-0.4,0.1c-0.3,0-2.5-1.7-2.5-2.3c0-0.2,0.2-0.3,0.2-0.5c0-0.4-0.4-0.8-0.4-1.2
			c0.1-0.3,0.3-0.6,0.7-0.7c-0.1-0.2-0.3-0.4-0.3-0.9s0.5-0.1,0.5-0.4V333c0.4-0.4,0.4-0.6,0.4-1.1c0-0.2,0-0.6-0.1-0.8
			c0.2-1.4,1.4-2.7,1.5-3.3c-0.4,0.9,0.5-1.9,0.9-1.9v-0.4c0-0.9,0.4-1.4,0.8-1.8c0.4,0,0.3-2.8,1.3-3v-0.4c-0.1,0-0.1,0-0.1-0.1
			c0-0.8,0.6-1.4,0.9-1.9l0.1-0.2c0.1-0.5-0.5-1.3-0.5-1.7l1.3-0.1c1,0,2.5,0.2,2.8,0.6v0.2h0.3c0.1,0.5,0.1,0.2,0.1,0.8
			c0,0.7-0.3,0.1-0.4,0.7c0.2-0.1-0.2,0.8-1.3,3l-0.5,1.2c0,0-1.2,1.7-1.3,2.1v0.2c0,1.2-0.6,1.8-1.5,2.4c0,0.1,0.1,0.3,0.2,0.5
			c-0.1,0.1-0.2,0.1-0.4,0.1v0.2c0,0.4-0.2,0.5-0.2,0.9h-0.4c-0.1,0.2-0.2,0.3-0.2,0.5s0.1,0.4,0.1,0.6c0,0.7-0.9,0.7-0.9,1.5v0.2
			h-0.4c-0.1,0.2-0.3,1.1-0.3,1.8c0,0.6,0.1,1.7,0.4,1.9c0-0.1,0.4,0.4,0.6,0.4c0.4,0,0.7-0.4,0.9-0.4l0.9-0.9l1.4-1.4
			c1.4-0.7,1.7-2.4,3-3.9v-0.7h0.2c1.4-1.4,2.4-3.6,5-5.8h0.2c-0.1,0,1.1-1.7,1.1-3c0-0.3-0.2-0.6-0.2-0.7c0-0.1,0.1-0.1,0.2-0.1
			c0.3,0,1.1,0.6,1.1,1.1v0.1h0.2c1.2,0.3,1.9,1.7,1.9,2.2c0,0.4-1.5,2.1-1.5,2.4c0,0.2,0.1,0.2,0.2,0.4c-0.1,0.3-0.6,2.4-0.9,2.6
			h-0.4v0.4c0-0.2-0.5,1.5-0.9,2.4v0.2c0.2,0.1,0.2,0.1,0.2,0.2c0,0.2-0.4,0.4-0.4,0.6c0,0.1,0,0.2,0.1,0.2c0,0.5-0.2,0.5-0.2,0.7
			c0,0.1,0.1,0.1,0.2,0.4v0.3c0,0.9-0.1,1.5-0.1,2.4v2.5L796.3,339.3z M785,328.1c0-0.1,0-0.1-0.1-0.2
			C785.2,327.8,785,327.8,785,328.1z"/>
		<path d="M821.5,322.5c0,0.1,0.1,0.3,0.1,0.4c-0.1,0.2-0.4,0.8-0.6,0.9c0-0.1-0.1-0.3-0.1-0.4c-0.2,0.6-0.9,1.3-1.4,1.6
			c-0.3,0.1-0.4-0.1-0.5-0.3c0.2-1.5,0.4-2.2,0.5-3.7c0.1-0.2,0.1-0.6,0.2-1.1c-1.2,0.6-2.6,1.7-3.5,2.2l-1.7,1.2
			c-1.5,1.1-2.2,1.7-3.7,2.8c-1,1.4-0.5,0.5-2.2,2.5c-0.9,2.3-2.8,2.6-3.3,5.3c-0.2,0.8-0.8,1.2-1.9,3.8c-0.1-1-0.1-1.3-0.4-1.2
			c-0.5,0.2-1.4,2.3-2.5,2.3c-0.2,0-0.2,0-0.3-1.8c0-1,0.4-2.2,0.4-2.8c0-0.4,0.7-0.8,1.2-1.8l0.1-0.1c0.9-1.2,0.6-1.9,0.8-2.8
			c0-0.2,0-0.4-0.1-0.5c0.5-2.4,1.7-4,2-5.1l0.6-1.8c0.5-1.7,0.6-2.5,0.6-3.5c-0.1-0.9,0.1-1.7-0.4-2.2c0-0.4,0.1-0.4,0.3-0.4
			c0.2,0,0.6-0.1,0.9,0.1h0.2c0.8,0,0.6,0.4,1.2,0.6h0.4c0.3,0,0.4,1.1,0.5,2.2c0.1-0.3,0.4-0.4,0.4-0.4c0.1,0,0.1,0.1,0.1,0.2
			c0,0.6-0.2,1.2-0.2,1.4v0.9c0,0.5-0.2,0.6-0.2,1.2c-0.2,1.4-0.6,1.1-0.9,1.9c-0.2,0.6-0.6,1.3-0.9,1.7c-0.4,0.6-1.4,2.8-1.4,3.4
			c0,0.2,0.2,0.4,0.3,0.4c0-0.9,2.9-3.5,3.5-4.4c0.4-0.4,0.6,0,0.8-0.6c-0.1,0,0.2,0,0.2-0.2c0-0.2,0.2-0.4,0.6-0.6
			c0.9-0.6,1.4-0.9,2.5-1.3h0.5c0.1-0.5,0.7-1.1,1.5-1.4c0.2-0.1,0.5-0.7,0.7-0.6c0.3,0,0.4-0.1,0.5-0.3l-0.1-0.1
			c0.1,0.1,0.7,0.1,1.2-0.2l0.5-0.2c0.5-0.3,0.9-0.4,1.3-0.4c0.1-0.4,0.3-0.8,0.5-1.2c0.4,0.3,1,0.1,1.9,0.1
			C823.5,320.2,822.4,320.6,821.5,322.5z M800.9,332.8l-0.2,0.5h-0.4l0.3-0.8L800.9,332.8z M801.6,331.9l-0.3,0.8l-0.1-0.9l0.1-0.9
			l0.3-0.5l0.6-0.6l0.1,0.9l-0.2,0.5L801.6,331.9z M816.8,319.8L816.8,319.8L816.8,319.8z M820.6,324.3c0.1,0,0.4-0.1,0.4-0.1
			c-0.1,0.5-0.6,0.9-0.9,1.1C820.1,325,820.6,324.5,820.6,324.3z"/>
		<path d="M840.8,336.7c0.2-1.9,0.4-4,0.6-5.9h0.8c-0.4-1.7,1.1-1.6,1.6-3.2c0.4-0.4,0-0.4-0.2-0.9c0.2-0.1,2.8-5.5,3-5.8
			c-2.1,0-5.6,0.4-7.1,0c-0.4-0.8-0.5-0.1-0.5-1.5c-0.4-0.6-0.1-0.7,0-1.7c3.5,0,6.6-0.9,9.8-1.2c1.2-1.9,2.5-5.3,3.5-7.4
			c0.4-0.8,1.3-2.2,0.8-2.9c0.9-1.2,3-5.2,3.3-6.9h-0.6c-0.7,0.6-1.7,0.1-2.7,0.6c-0.1,0.3-0.2,0.5-0.3,0.9
			c-0.1-0.1-0.1-0.1-0.3-0.4c-1.6-0.3-5.3,2.1-5.9,1.8c-1.7-0.4-2.5-1.1-2.5-3.5c-0.3-0.4-0.4-1.2-0.8-1.9h1.1v-1.2
			c0.9,0.1,1,0.6,1.6,0.9c2.7-0.4,5.3-0.8,7.9-1.2c0.1,0.1,7.1-1.2,9.2-1.7c6.8-1.8,20.6-1.2,25.1,0.9c0.6,0.2,1.1-0.4,1.4-0.3
			c1.7,0.3,6.6,1.7,7.3,3.7c0.4,0.4,0.4,1.8,0.3,1.9c-0.3,0.2-0.1,0.1-0.5,0.3c-1-1.6-2.5-2.5-4.4-3l-1.1-0.5l-0.8-0.2l-1.2,0.1
			h-0.9l-0.5-0.6l-1.2,0.1l-1.3-0.4l-1.4,0.1l-0.3-0.1l-1.4-0.5l-0.4,0.6l-1.2-0.3l-1.4-0.1c-5.8-0.1-12.4,0.8-17.4,1.9v0.6h0.4
			c0.6,0.9-0.1,0.9,0,1.8l-0.5,1.2v0.3l-1.1,0.9l-0.2,0.6l-0.9,1.2v0.9l-0.7,1.1l-1.2,0.9l-0.1,0.6l0.1,1.2l-0.9,0.2l-0.4,1.4
			l-0.6,0.5v1l-0.4,0.6l-0.4,1.3L854,316h0.8c1.4-0.8,5.6-1.2,7.2-0.4c0.9-0.7,3-1.2,4.8-1.2c1,0,2,0.1,2.8,0.4
			c1.7,0.6,3.5-0.9,5.1-0.9c0.6,0,1.2,0.3,1.7,1.2h-4.6c-1.2,0.8-1.7-0.1-3.3,0.2c-2.2,0.6-2.6,0.9-3.8,0.9l-1.9,0.2
			c0.6,0.4,0.1-0.1,0.5,0.6c-0.4,0.4-0.4,0.5-1.1,0.8c-0.4,0.4-1.4,0.4-1.9,0c1-0.1,0.7,0.1,1.1-0.5h-1.1c-0.3,0.2-0.1,0.1-0.5,0.2
			v0.6c0.4,0.1,0.2,0.1,0.5,0.4c-0.8-0.1-0.7-0.3-1.1,0c-0.5,0.7-1.7,0.4-3.1,0.5c-1.9,0.1-5.5,0.4-6.3,1.2
			c-0.7,0.6-0.9,2.1-1.1,3.3h0.3v-0.2c0.4-0.4,0.4-0.5,0.6-1.4h1.1v0.2c-1.1,0.9-1.1,4-2.2,4.8c-1.2,0.9-2-0.5-3,1.7
			c0.4,0.3,0.8,1,1.1,1.8c-2.8,1.9-0.1,6.3-3,9.1C842.6,338.6,841.7,337.7,840.8,336.7z M846.8,329c-0.1,0.5-0.2,0.6-0.3,0.6
			c-0.1-0.1-0.3-0.4-0.2-0.6H846.8z M846.3,328.8l0.2-1.2c0.2,0.3,0.1,0.6,0.3,1.2L846.3,328.8z M847.6,328.4
			c-0.1,0.3-0.3,0.4-0.4,0.3c-0.1,0-0.1-0.9-0.1-1L847.6,328.4z M847.4,326.7h0.5v-0.5h-0.5V326.7L847.4,326.7z M848.7,325.5v-1.2
			c-0.1-0.2,0.1-0.1-0.2-0.4c-0.1,0.4-0.2,0.6-0.3,1.6L848.7,325.5L848.7,325.5z M850.2,314h0.6v-0.6h-0.6V314z M860.6,318.8
			c0.6,0.1,0.5,0.1,0.8,0.3C860.8,319,860.9,319,860.6,318.8z M861.4,316.8h0.6v-0.5h-0.6V316.8z M861.4,318.6
			c0.6,0.1,0.5,0.1,0.8,0.2C861.6,318.7,861.6,318.8,861.4,318.6z M862.2,296.2h0.6v-0.3l-0.6-0.2V296.2z M862.5,297.7
			c0.6,0.1,0.5,0.1,0.8,0.4C862.7,297.9,862.7,297.9,862.5,297.7z M864.6,317.5c0.6,0.1,0.5,0.1,0.8,0.2
			C864.9,317.6,864.9,317.7,864.6,317.5z M865.7,295.9c0.9,0,1.4-0.1,1.9-0.5h-1.9V295.9z M866.8,316.8c0.6,0.1,0.5,0.1,0.8,0.4
			h-0.2c-0.3,0.2-0.1,0.1-0.6,0.3L866.8,316.8L866.8,316.8z M870.8,316.3c-1.2,0-2.2,0-2.8-0.4l2.8,0.1V316.3z M873.3,294.6h-1.6
			c0,0.8-0.4,0.6,0.8,0.9C872.9,294.9,873,295.2,873.3,294.6z M871.7,315.8c0.2,0,1.9-0.4,1.9-0.4c0.1,0,0,0.5-0.6,0.9
			C872.5,316.2,872,316,871.7,315.8z M876.5,295.1l2.8-0.2l-1.9-0.4h-0.8L876.5,295.1L876.5,295.1z M877.3,314.6
			c-0.4-0.1-0.2-0.1-0.5-0.4h0.5V314.6z"/>
		<path d="M879.3,318.5c0,0.6-0.5,1.7-0.7,1.9c0-0.1-0.1-0.2-0.2-0.2c-0.1,0-0.4,0.2-0.4,0.4l0.1,0.9c-0.4,0.4-2.2,3-2.2,3.7
			c0,0.1,0.1,0.1,0.1,0.2c0,1.5-2.4,3.7-2.4,4.2c0,0.4,0.4,0.2,0.4,0.4c0,0.4-0.2,1-0.2,1.9v0.2c0,0.2-0.4,0.3-0.4,0.6v0.4
			c0,0.2,0,0.3-0.3,0.4h-0.4c0.1,0.2,0.3,0.3,0.2,0.5c-0.2,1-0.3,1.2-0.5,1.9l-0.2,1.8c0.1,0.9,0.6,0.6,0.9,1.6l0.5,0.2
			c0.2,0.2,0.4,0.4,0.4,0.6c0,0.1-0.1,0.1-0.3,0.2l-0.4,0.1c-0.3-0.4-1.5,0.1-1.7-0.2c-0.1-0.1,0.1-0.2,0.3-0.4l-1.6-0.4l-0.1-0.7
			c-0.1-0.6-0.2-1.2-0.5-1.4l-0.1-0.4c0-1-0.5-0.4-0.5-1v-0.2c0.2-0.2,0.2-0.2,0.2-0.9c0-0.1-0.1-0.2-0.1-0.4c0.3-0.2,0.2-1,0.7-1.1
			v-0.6c-0.2,0-0.3-0.1-0.4-0.1c-0.1,0-0.1,0-0.1,0.1c-0.1-0.1-0.2-0.2-0.2-0.4c0-0.6,1.1-1.5,1.4-2.4c0.2,0.2,0.4,0.2,0.4,0.2h0.3
			c0.1,0,0.2,0,0.4,0.1c-0.4,0.3-0.1,1.2-0.7,1.3c0,0.1,0.1,0.2,0.1,0.2c0.2,0,0.6-0.8,0.9-0.8V330c-0.1-0.5-1.1-0.3-1.1-1.1
			c0-0.9,0.4-1.3,1-1.7h0.2c0.3-1.4,0.5-2,0.5-2.5c0-0.2-0.1-0.3-0.1-0.4c1.1-0.5,1.2-3,1.9-3h0.2v-0.1c0-0.4-0.4-0.6-0.4-0.6
			c0-0.4,1.6-1,0.9-1.5c-0.9-0.7-0.1-0.9-0.1-1.2c0-0.4,0.5-0.4,0.5-0.9h0.4c-0.1-0.4-0.4-0.5-0.1-0.9c0.1-0.3,0.4-0.6,0.6-0.9
			c0.6,0.1,2.2,1.4,2.4,1.9v0.4c0,0.3,0.1,0.4,0.3,0.5C879.2,318.2,879.3,318.2,879.3,318.5z M876.6,322.1c0.6,0,0.3-0.6,0.7-0.8
			h-0.9L876.6,322.1z M883,305.8c0.5,0.3,1.6,1.2,1.6,1.8c0,0.3-0.1,0.5-0.6,0.7h-0.3c-0.6,0-0.7,0.3-1.5,0.3v0.3
			c0,0.3-2.2,0.3-2.6,0.3c-0.5,0-1.4,1.7-1.7,1.7c-0.1,0,0.1-0.6,0.8-2.6c0.1-1.3,0.9-3.1,1.4-3.1v-0.7c0-0.3,0.1-0.3,0.4-0.3
			c0,0.2,1.6,1,2.1,1.6L883,305.8L883,305.8z"/>
		<path d="M892.1,316.1L892.1,316.1c0,0.2-0.1,0.2-0.2,0.2c0,0.1,0,0.2,0.1,0.3c0,0-0.4,1.5-0.8,1.5c0,0.4,0.7,0.6,0.6,0.8
			c-0.3,0.4-1.2,0.4-1.2,0.9l0.1,0.3c0,1.1-1.7,3-1.7,3c0,0.1,0,0.4,0.1,0.6c-0.6,0.4-1.2,3.1-1.2,3.7c-0.1,0.5-0.5,0.9-0.9,1.3
			l0.1,0.5c0,0,0.1,0.1,0.1,0.2c-0.2,0.2-0.2,0.4-0.2,0.6v0.4c0,0.2-0.1,0.4-0.4,0.6c-0.4,0-0.6,3.5-1.6,3.7v0.2
			c0,0.4-0.2,0.6-0.6,0.6c0.2,0.4,0.6-0.1,0.6,0.7c0,0.6-0.2,1.3-0.2,1.7l0.1,0.1c0,0.2-0.2,0.5-0.4,0.5v0.1c0,0.9-2.8,1.8-3.3,1.8
			c-0.6-0.1-1.3-0.9-1.3-0.9c0-0.3,0.9-0.5,0.9-0.7l-0.3-1c0-0.3,0.9-0.7,1.2-1.1l-0.1-0.5c0.1-0.4,0.2-0.6,0.7-0.6
			c0-0.2-0.2-1.1-0.2-1.7c0.1,0,0.1-0.2,0.1-0.4v-0.7c0-0.9,0.5-0.4,0.5-1l-0.1-0.4c-0.1-0.1-0.1-0.1-0.1-0.2c0-0.5,0.9-1.1,0.9-1.4
			v-0.2c0-0.6,0.6-1.7,0.6-1.9v-0.1c0.1-0.4,0.5-0.8,0.5-1v-0.1c0-1.3,1-1.9,1-2.2v-0.4c0-0.1,0-0.3,0.1-0.3
			c0.2,0.3,1.7-4.3,2.1-4.3c0.1,0,0.1-0.1,0.1-0.2V319c0-0.6,2.8-8.1,3.3-8.5c0.8-1,1.9-3.3,1.9-3.6l-0.1-0.3c0-0.4,0.3-0.6,0.6-0.8
			v-0.3c0-1,0.7-1.4,0.7-2.5v-0.3c0.1-0.6,1.1-2.8,1.7-3.2c-0.1-0.2-0.1-0.3-0.1-0.4c0-0.2,0.1-0.3,0.1-0.5c0.4-0.4,2.3-4.8,2.3-5
			c0-0.1-0.4-0.1-0.4-0.1h-0.6c-0.3,0.8-0.6,1.7-1.1,2.3c-0.2-0.2-0.3-0.6-0.2-1c0.4-1.3,1.2-2.9,1.7-2.9c-0.1-0.1-0.1-0.4-0.1-0.4
			c0-0.2,0.5-0.4,0.5-1.5c0-0.1,0-0.4-0.1-0.6c-0.1,0.2-0.2,0.2-0.4,0.2c-0.1,0,0.3-0.6,0.3-0.6c0-0.1,0.4-0.6,0.4-0.6
			c0-0.4,0.7-0.4,0.7-0.5c0,0,0-0.1,0.2-0.1l-0.1-0.1c0-0.1,0.1-0.1,0.3-0.1c0-0.1,0.1-0.1,0.4-0.1c0.4-0.1,0.5-0.1,1.4,0.6l0.2,0.1
			c0.7,0.4,0.7,1.1,0.7,1.6c0,0.4-0.4,0.6-0.4,1.2c0,0.4-0.1,0.9-0.1,1.5v0.2c0.1,0.2,0.1,0.4,0.1,0.5c0,0.4-0.9,2.1-1.6,2.6
			c0.2,0.2,0.2,0.4,0.2,0.4v0.6c0,0.5-0.4,0.7-0.6,1.1c-1.1,0.5-0.4,2.2-1.3,2.9c-0.5,0.1-0.9,2.8-1.9,4.3v0.4
			c0,0.9-1.6,1.1-1.6,1.3c0,0.2,0.5,0.9,0.5,1.3c0,0.3-1.6,2.6-1.6,3.7C893.3,313.7,893.3,314.6,892.1,316.1z M893.6,301h0.2
			c0.9,0-0.1-1.8,0.4-1.9c0.4-0.2,0.4-1.6,0.6-1.6c0.2,0,0.5,0.4,0.5,0.7c0,0.2-0.6,0.1-0.6,0.6v0.2c0,1.1-1.3,4.1-1.5,5
			C892.6,304,893.1,302.4,893.6,301z M895.6,296.4L895.6,296.4c-0.2,0.1-0.3-0.1-0.6-0.1c0.1-0.2,0.2-0.2,0.2-0.5
			c0.2,0.1,0.4,0.3,0.6,0.3C895.7,296.2,895.6,296.2,895.6,296.4z"/>
		<path d="M916,330.4c0.2,0,0.4,0.1,0.4,0.2c-0.4,0.6-1.1,1.2-1.7,1.7h-0.2c-0.4,0-2.2,1.2-2.8,1.8v0.3c0,0.4-0.6,1.1-1.1,1.1
			c-0.4,0-0.4-0.3-0.6-0.3c-1.2,0-0.2,1.5-1.7,1.5h-0.3c-0.4,0.1-1.1,1-1.2,1.4h-0.5c-1.1,0-1.2,0.9-2.2,1.1h-0.8
			c-0.2,0.2-0.5,0.3-0.9,0.3c-1.5,0-3.5-1.1-3.9-1.8c0,0.2-0.1,0.2-0.3,0.2c0-0.1-3-2.1-3-4.1c0-0.3,0-0.4,0.1-0.5h0.4l0.1-0.7h-0.3
			c-1.3,0-0.8-0.8-1.7-0.8c0-0.6,0.5-0.9,0.6-1.3c0.3,0.1,0.4,0.2,0.4,0.4c0,0.2-0.1,0.3-0.2,0.4c0.7-0.2,1.2-0.9,1.2-1.9h0.4V329
			c-0.2-0.1-0.2-0.2-0.2-0.4c0-0.4,0.6-0.9,0.6-1.6c0-0.1,0-0.4-0.1-0.4c-0.6,0-0.3,1.2-1.1,1.2c0,0-0.1-0.1-0.2-0.1
			c0.1,0.1,0.2,0.4,0.2,0.9c0,0.6-0.5,0.6-0.5,0.9c0,0.2,0.1,0.2,0.2,0.2c-0.2,0.3-0.4,0.4-0.4,0.4c-0.2,0-0.4-0.4-0.4-1.1
			c0-1.5,1-1.7,1-2.4c-0.1-0.3-0.1-0.5-0.1-0.7c0-0.9,0.4-1.2,1-2.2c0.2,0.1,0.3,0.2,0.3,0.4c0,0.4-0.6,1.2-0.7,1.8
			c0.3-0.1,0.4-0.5,0.7-0.6l0.1-0.5c0.1-0.4,0.4-0.4,0.5-0.8c0-0.2-0.4-0.4-0.4-0.7c0,0.1,2.2-2.2,2.4-2.9c-0.1,0-0.1-0.1-0.1-0.1
			c0-0.1,0.3-0.4,0.5-0.4h0.4l0.1-0.7c0.3-0.8,1.2-1.3,1.7-1.3h0.2c0.9-0.3,1.6-0.6,2.2-1.2v-0.2c0.9-0.4,1.9-0.8,3-0.8
			c0.5,0,3.8,1.2,3.8,2.4c0,0.5-0.6,0.5-0.6,0.9c0,0.4,1.1,0.4,1.1,1.2c0,0.2-0.1,0.3-0.4,0.4c0.1,0.2,0.2,0.4,0.4,0.5
			c0,0.1-0.1,0.1-0.1,0.1c-0.1,0-0.2-0.1-0.4-0.1c0,0.6-0.3,0.7-0.4,1.1c0,0.2,0.1,0.5,0.1,0.6c0,0.3-0.2,0.4-0.8,0.4h-0.2
			c0,0.2,0.1,0.3,0.1,0.5c0,0-3.3,3.3-4.2,3.3h-0.4c-0.4,0-0.6-0.2-0.9-0.4c-0.8,0-0.1,0.9-1.4,0.9c-0.4,0-0.7-0.1-0.7-0.3
			c0-0.1,0-0.1,0.1-0.2c-1.1-0.1-2.4-0.8-3.3-0.8c-0.1,0-0.2,0-0.2,0.2c0,0.1,0.1,0.4,0.1,0.4c0,0.6-0.6,0.2-0.6,0.6
			c0,0.4,0.1,0.9,0.1,1.3c0,1.6-0.7,3.3-0.7,5.1c0,0.9,0.3,2.2,1.4,2.4h4.9c0.5-0.4,1.3-0.6,2.2-0.6c2-0.4,4-2,5.7-2.5
			c2.1-0.3,0.8-1.1,4.1-2.8L916,330.4L916,330.4z M899.8,323.9c-0.1,0.2,1.6,0.4,2.1,0.2c5.5-1.3,5.5-3.3,5.8-4.2l0.2-1
			c-0.4-0.4-0.9-0.9-1.5-0.9c-0.3,0-0.6,0.1-0.9,0.2h-0.7c0-0.1-0.1-0.2-0.2-0.2c-0.2,0-0.6,0.2-0.6,0.5c0,0.4,0.5,0.4,0.5,0.8
			c-0.2,0.2-0.7,0.1-0.9,0.5h-0.4c-0.5,0-0.7,0.4-1.2,0.6c-0.6,0.4-1.2,0.8-1.7,1.4c0.1-0.1,0.1-0.1,0.2-0.1c0.1,0,0.2,0.1,0.1,0.2
			L899.8,323.9z M901.2,321.8c0-0.4,0.7-1.3,1.2-1.3c0.1,0,0.2,0,0.2,0.1c-0.2,0.5-0.7,0.5-0.9,1.2
			C901.4,321.8,901.2,321.8,901.2,321.8C901.2,321.8,901.2,321.8,901.2,321.8z"/>
		<path d="M919,340c-0.5-0.1-0.9-0.1-1.4-0.3c-0.8-0.1-1.6-0.4-2.4-0.7c-0.5-0.8-0.4-2.5,0.9-4c0.6-0.1,0.1-0.2,0.7-0.4
			c0.2,0.8-0.1-0.6,0.6-0.2c0.4-0.3,0.5-0.3,1-0.5c0,0.8,0.3,0.6-0.1,0.6c-0.3,0.1-1.9,1.5,0.1,1.9c0.6,0.4,2.1,0.3,3.1,0.3
			c1.5,0.2,3.9,0.2,4.9-1.2c0.3-0.4,0.3-0.8,0.3-1.4c-0.5-0.2-1.2-0.5-1.7-0.8c-1.2-1.8-0.6-0.3-1.2-0.6c-0.6-0.4-0.8-1.6-2.2-1.3
			l-0.8-0.6c-0.3-0.3-0.6-0.6-0.9-0.9c-0.6-0.7-1-1.5-1.1-2.3c-1.7-2.2,0.9-4.3,2.1-5.7c-0.2-0.2-0.4-0.4-0.5-0.6h1v-0.9
			c1.1-0.4,3-2.5,4.8-3.7c0.4-0.4,0.9-0.6,1.3-0.8c0.6-0.2,1.1-0.3,1.4-0.1c1.2,0.2,4.8,3.1,5,4.3c-0.2,0.3-0.1,0.2-0.3,0.7
			c-1.4-0.8-2.8-0.9-4.7-0.4c-0.4,0.1-0.3-0.6-0.8-0.4c-0.4,0.2-0.7,0.9-1.2,1.2c-0.4,0.4-0.8,0-1.2-0.1c-0.4,0.4,0.3,0.5-0.1,0.9
			c-0.1,0.1-0.5,0.4-0.9,0.9l-0.6-0.3l-0.4,1.2c-0.6,0.6-1.2,1.1-1.3,1.3c-0.3,0.4-0.6,0.9-0.8,1.3c-0.3,0.6-0.5,1.4-0.5,2.1
			c0.2,0.2,0.1,0.1,0.2,0.5c3.1,1.4,7.7,4.1,8,8.1c-0.5,0.6-1.2,1.1-1.9,1.4c-0.4,0.2-0.7,0.4-1.1,0.5s-0.6,0.3-1,0.4
			c-0.2,0.1-0.4-0.4-0.6,0.2c-0.6-0.4-1.2,0.2-1.7,0.3c-0.4,0.1-0.8,0.1-1.2,0.1c-0.4,0-0.9,0.1-1.3,0
			C919.4,339.5,918.8,339.5,919,340z M919.4,333.4c0.4-0.1,0.6-0.1,0.7-0.1c-0.4,0.4-1.2,0.9-1.5,0.5
			C918.8,333.7,919.1,333.5,919.4,333.4z M920.1,336.4c0-0.1-0.5-0.4-0.5-0.6c0.1,0.2,1,0.2,1.2,0.6H920.1z M924.9,330.1
			c0.1-0.2,0.1-0.1,0.2-0.5c0.6-0.4,1.4-0.5,1.9-0.1c-0.9,0.3-1.6,0.6-2.1,0.9V330.1z M925.4,330.6c0.6-0.3,1.1-0.6,1.4-0.9
			c-0.5,0.5-1.3,1.4-1.3,0.9H925.4z M927.1,328.9c-0.1,0.1-0.3-0.1-0.2-0.1c0.2,0,0.6-0.2,0.5-0.1L927.1,328.9z M934.9,326.4
			c1.2-0.4,1.7-0.8,3.3-1c-2.7,1.4-7.4,2.8-10.7,3.9C929.3,327.7,933.9,326.2,934.9,326.4z M940,324.1c-0.1,0.1-0.2,0.3-0.4,0.4
			C939.9,324.2,940,324,940,324.1z"/>
	</g>
</g>
</svg>
